<svg width="38" height="58" viewBox="0 0 38 58" fill="none" xmlns="http://www.w3.org/2000/svg">
<g clip-path="url(#clip0_200_201)">
<path d="M37.85 18.93C37.85 8.47 29.38 0 18.93 0C8.48001 0 0.100008 8.33 7.72893e-06 18.74C-0.0399923 22.57 1.07001 26.14 2.98001 29.13C8.82001 38.52 10.16 39.04 12.79 44.47C14.67 48.36 16.72 52.94 17.93 56.32C18.26 57.25 19.58 57.25 19.91 56.32C21.13 52.94 23.17 48.36 25.05 44.47C27.68 39.05 29.02 38.52 34.86 29.13C36.75 26.18 37.85 22.68 37.85 18.92" fill="white"/>
</g>
<defs>
<clipPath id="clip0_200_201">
<rect width="37.85" height="57.02" fill="white"/>
</clipPath>
</defs>
</svg>
