<svg width="939" height="25" viewBox="0 0 939 25" fill="none" xmlns="http://www.w3.org/2000/svg">
<path d="M76.6714 12.7491C83.7974 12.838 97.5376 12.7832 105.096 12.7531C105.234 12.7526 105.373 12.7521 105.512 12.7516C107.306 12.7444 109.002 12.7412 110.99 12.7376C115.731 12.7288 122.136 12.717 135.503 12.6405C139.393 12.6384 143.283 12.6354 147.172 12.631C189.175 12.5844 231.178 12.4573 273.181 12.3144C273.711 12.3143 274.251 12.3142 274.796 12.3141C285.331 12.3124 298.394 12.3102 306.602 12.2658C317.038 12.2093 324.126 12.1598 329.947 12.1174C363.309 12.0028 396.671 11.8965 430.033 11.8308C440.489 11.8103 450.947 11.7937 461.403 11.7821C471.032 11.7715 480.663 11.7638 490.291 11.7589C495.899 11.7738 501.23 11.7929 506.174 11.8106C513.121 11.8355 519.306 11.8575 524.414 11.8613C536.723 11.8704 550.685 11.819 561.053 11.7808C562.748 11.7746 564.348 11.7687 565.827 11.7635C574.062 11.7675 582.298 11.7725 590.533 11.7779C591.083 11.7692 591.637 11.7602 592.2 11.751C599.228 11.6359 607.867 11.6277 621.466 11.6146C627.388 11.6089 634.252 11.6022 642.332 11.5855C647.539 11.5747 650.214 11.5292 652.399 11.4921C653.042 11.4811 653.645 11.4709 654.255 11.4625C656.347 11.4338 658.552 11.4599 661.157 11.4907C664.536 11.5307 668.591 11.5788 673.946 11.5254C691.012 11.3552 698.531 11.4494 704.22 11.5208C705.888 11.5417 707.401 11.5606 708.949 11.5703C713.97 11.6018 721.123 11.5571 726.53 11.5007C730.816 11.456 739.393 11.4861 745.897 11.5293C748.357 11.5456 751.683 11.5424 755.6 11.5385C759.654 11.5345 764.344 11.5297 769.362 11.5455C782.042 11.5855 788.781 11.6042 794.198 11.6191C795.743 11.6234 797.181 11.6272 798.618 11.6313C803.16 11.6442 808.795 11.6527 814.501 11.6613C821.329 11.6716 828.259 11.682 833.532 11.7003C847.199 11.6596 860.867 11.6127 874.532 11.566C881.552 11.5418 888.287 11.442 893.25 11.2843C898.213 11.1265 901 10.9247 901 10.7189C901 10.513 898.212 10.3175 893.249 10.1707C888.285 10.024 881.55 9.93899 874.531 9.93038C860.39 9.9134 846.246 9.8964 832.104 9.88606C814.876 9.87347 797.648 9.87074 780.421 9.88986C768.37 9.90323 756.318 9.92151 744.266 9.94371C743.026 9.946 741.785 9.94837 740.544 9.95074C730.42 9.91129 720.315 9.8764 713.196 9.86787C707.317 9.86083 703.032 9.89263 699.361 9.91984C696.836 9.93857 694.601 9.95514 692.34 9.9554C691.125 9.95555 689.466 9.95426 687.466 9.95273C679.298 9.94645 665.425 9.93581 652.769 9.99932C647.153 10.0275 640.63 10.078 634.402 10.1262C625.496 10.1951 617.192 10.2594 612.999 10.2472C605.637 10.2256 597.194 10.2601 589.734 10.2907C582.618 10.3198 576.394 10.3453 572.855 10.3149C568.625 10.2786 565.019 10.2993 559.656 10.33C555.937 10.3513 551.373 10.3773 545.169 10.3926C538.007 10.4103 532.94 10.4446 528.634 10.4738C522.572 10.5149 518.012 10.5458 511.215 10.5058C503.664 10.4614 495.773 10.4366 489.558 10.4601C486.727 10.4709 483.489 10.4726 480.12 10.4744C475.659 10.4768 470.968 10.4794 466.684 10.5031C463.154 10.5226 460.237 10.5658 457.655 10.604C456.85 10.616 456.077 10.6273 455.329 10.6374C452.517 10.64 449.705 10.6424 446.894 10.6443C446.439 10.6384 445.96 10.6318 445.461 10.625C442.954 10.5909 439.872 10.5491 436.057 10.5308C430.018 10.5018 424.719 10.53 419.129 10.56C414.777 10.5832 410.249 10.6075 405.058 10.6064C401.518 10.6056 397.488 10.5937 393.493 10.582C387.559 10.5645 381.699 10.5474 377.627 10.5669C376.102 10.5743 374.79 10.6008 373.492 10.6272C373.487 10.6274 373.481 10.6275 373.475 10.6277C373.387 10.6295 373.299 10.6313 373.211 10.633C363.295 10.6249 353.378 10.6148 343.463 10.6036C342.604 10.5981 341.735 10.5927 340.875 10.5874C336.67 10.5615 332.585 10.5363 329.921 10.497C327.034 10.4545 319.776 10.436 312.127 10.4164C307.118 10.4036 301.94 10.3904 297.712 10.3697C295.241 10.3576 292.896 10.386 290.484 10.4154C288.234 10.4428 285.923 10.4709 283.397 10.4673C282.132 10.4656 280.765 10.4564 279.307 10.4466C278.023 10.4379 276.666 10.4287 275.244 10.4237C273.924 10.4192 270.983 10.4365 267.212 10.4586C264.881 10.4723 262.234 10.4877 259.455 10.5011C252.109 10.4931 244.762 10.4858 237.416 10.4796C235.884 10.4586 234.554 10.4307 233.501 10.3941C232.746 10.3678 232.103 10.3361 231.442 10.3037C230.543 10.2597 229.613 10.2141 228.332 10.1784C227.33 10.1505 226.148 10.1402 225.355 10.1532C224.986 10.1592 224.702 10.1701 224.444 10.18C224.149 10.1913 223.886 10.2013 223.565 10.2014C223.333 10.2014 223.091 10.1939 222.795 10.1849C222.321 10.1704 221.704 10.1517 220.767 10.152C217.277 10.1533 213.31 10.1639 209.424 10.1744C205.103 10.186 200.88 10.1973 197.515 10.1952C193.746 10.1929 188.374 10.2277 182.994 10.2624C179.24 10.2867 175.481 10.3108 172.256 10.3226C169.096 10.3341 165.806 10.3218 162.619 10.3098C158.794 10.2953 155.115 10.2814 151.988 10.3101C151.356 10.316 150.571 10.3481 149.586 10.3883C148.888 10.4168 148.084 10.4494 147.17 10.4797C143.19 10.4841 139.209 10.4898 135.229 10.4966C135.089 10.4925 134.945 10.4883 134.8 10.4841C134.797 10.484 134.795 10.4839 134.793 10.4838C131.524 10.3879 127.05 10.2568 120.766 10.3449C119.169 10.3673 118.163 10.4066 117.257 10.4419C116.367 10.4766 115.572 10.5076 114.408 10.5153C113.085 10.5239 111.524 10.5049 109.823 10.4843C107.433 10.4554 104.764 10.423 102.086 10.4589C101.903 10.4613 101.706 10.464 101.502 10.4667C99.5603 10.4922 96.6864 10.53 93.8268 10.6028C85.3422 10.6308 76.8567 10.662 68.3721 10.6951C54.2293 10.7504 40.0835 10.8113 25.942 10.8721C19.0619 10.9019 12.4637 11.004 7.59877 11.1611C2.73354 11.3185 -0.000143944 11.5168 8.01824e-05 11.7187C0.000710333 11.9207 2.73479 12.1128 7.59999 12.2593C12.4653 12.4057 19.0634 12.4931 25.9438 12.5077C37.163 12.531 48.3857 12.5544 59.6063 12.575C60.1944 12.5785 60.785 12.582 61.3729 12.5851C65.747 12.6085 69.8055 12.6609 73.8668 12.7133C74.7996 12.7253 75.7342 12.7374 76.6714 12.7491Z" fill="black"/>
<path d="M926.598 2L926.256 2.87909L926.696 3.75819L926.305 4.63722L926.5 5.51631L926.256 6.39535L926.403 7.22562L926.256 8.10465L926.647 8.98374L926.207 9.86284L926.793 10.7419L926.256 11.621L926.549 12.5L926.305 13.3791L926.451 14.2582L926.647 15.1372L926.256 15.9675L926.647 16.8465L926.5 17.7256L926.451 18.6047L926.403 19.4837V20.3628L926.647 21.2419L926.305 22.121L926.793 23" stroke="black" stroke-width="2.4" stroke-miterlimit="10" stroke-linecap="square"/>
<path d="M937 12.7931L936.121 12.207L935.242 12.3047L934.363 12.4512L933.533 12.6466L932.653 12.5L931.774 12.3047L930.895 12.2559L930.016 12.6466H929.137L928.258 12.5489L927.379 12.6954L926.5 12.3047L925.621 12.7442L924.791 12.6466L923.912 12.4024L923.033 12.3536L922.153 12.7442L921.274 12.5489L920.395 12.3536L919.516 12.5489L918.637 12.207L917.758 12.7931L916.879 12.207L916 12.2559" stroke="black" stroke-width="2.4" stroke-miterlimit="10" stroke-linecap="square"/>
</svg>
