<svg width="147" height="46" viewBox="0 0 147 46" fill="none" xmlns="http://www.w3.org/2000/svg">
<path d="M97.0552 33.4232C96.7769 33.4696 96.2403 33.4506 95.9451 33.4402C95.9397 33.4401 95.9343 33.4399 95.9289 33.4397C95.8588 33.4372 95.7926 33.4366 95.7149 33.4359C95.5298 33.4342 95.2797 33.432 94.7577 33.4024C94.6058 33.4034 94.4539 33.404 94.302 33.404C92.6617 33.404 91.0214 33.3654 89.381 33.3192C89.3603 33.3194 89.3392 33.3196 89.318 33.3199C88.9065 33.3247 88.3964 33.3306 88.0759 33.3137C87.6683 33.2921 87.3915 33.2721 87.1642 33.2548C85.8613 33.2176 84.5585 33.1844 83.2556 33.1706C82.8473 33.1663 82.4389 33.1639 82.0305 33.1639C81.6545 33.1639 81.2784 33.1654 80.9024 33.1682C80.6834 33.1783 80.4752 33.1903 80.2821 33.2015C80.0108 33.2171 79.7693 33.231 79.5698 33.2355C79.0891 33.2464 78.5439 33.2292 78.139 33.2164C78.0728 33.2143 78.0103 33.2123 77.9525 33.2106C77.631 33.2169 77.3093 33.2237 76.9877 33.2307C76.9663 33.2268 76.9446 33.2228 76.9226 33.2187C76.6482 33.1672 76.3108 33.1678 75.7797 33.1688C75.5485 33.1692 75.2804 33.1697 74.9649 33.1659C74.7615 33.1635 74.6571 33.1431 74.5717 33.1264C74.5466 33.1215 74.5231 33.117 74.4992 33.1133C74.4175 33.1006 74.3314 33.1143 74.2297 33.1305C74.0977 33.1515 73.9394 33.1767 73.7303 33.1539C73.0638 33.0813 72.7702 33.1306 72.548 33.1678C72.4829 33.1788 72.4238 33.1886 72.3633 33.1941C72.1672 33.2119 71.8879 33.1943 71.6768 33.1701C71.5094 33.1509 71.1744 33.1699 70.9204 33.1941C70.8244 33.2033 70.6945 33.2035 70.5415 33.2037C70.3832 33.2039 70.2 33.2042 70.0041 33.2144C69.5089 33.2403 69.2457 33.2529 69.0342 33.263C68.9739 33.2658 68.9177 33.2685 68.8616 33.2712C68.6842 33.2798 68.4641 33.2869 68.2413 33.294C67.9746 33.3026 67.704 33.3113 67.4981 33.3229C66.9644 33.3106 66.4306 33.2954 65.8969 33.2803C65.6228 33.2724 65.3598 33.2281 65.166 33.155C64.9722 33.0819 64.8633 32.9866 64.8633 32.8877C64.8633 32.7889 64.9722 32.6936 65.166 32.6205C65.3598 32.5474 65.6228 32.503 65.8969 32.4952C66.4492 32.4795 67.0015 32.4638 67.5538 32.4513C68.2266 32.4361 68.8994 32.4256 69.5721 32.4256C70.0428 32.4256 70.5134 32.4279 70.984 32.4322C71.0325 32.4326 71.0809 32.4331 71.1294 32.4336C71.5248 32.4092 71.9194 32.3871 72.1974 32.3792C72.427 32.3727 72.5943 32.3857 72.7377 32.3968C72.8363 32.4044 72.9236 32.4112 73.0119 32.4101C73.0593 32.4095 73.1241 32.408 73.2022 32.4062C73.5212 32.3989 74.063 32.3864 74.5572 32.4101C74.7765 32.4207 75.0313 32.4414 75.2745 32.4613C75.6223 32.4896 75.9466 32.516 76.1103 32.5079C76.3978 32.4936 76.7275 32.5057 77.0189 32.5164C77.2968 32.5266 77.5398 32.5355 77.6781 32.519C77.8432 32.4994 77.9841 32.5074 78.1935 32.5193C78.3387 32.5275 78.517 32.5376 78.7592 32.5416C79.0389 32.5463 79.2368 32.5601 79.405 32.5718C79.6417 32.5883 79.8198 32.6007 80.0852 32.5779C80.3801 32.5525 80.6883 32.5364 80.931 32.5444C81.0415 32.548 81.168 32.5471 81.2996 32.5462C81.4737 32.545 81.657 32.5437 81.8242 32.5528C81.9621 32.5603 82.076 32.5795 82.1768 32.5965C82.2083 32.6018 82.2385 32.6068 82.2677 32.6113C82.3775 32.611 82.4873 32.6106 82.5971 32.6101C82.6149 32.607 82.6336 32.6036 82.6531 32.6C82.751 32.5823 82.8713 32.5606 83.0203 32.5498C83.2561 32.5327 83.4631 32.5434 83.6814 32.5548C83.8513 32.5636 84.0281 32.5729 84.2309 32.5696C84.3691 32.5673 84.5265 32.5595 84.6825 32.5517C84.9143 32.5402 85.1431 32.5288 85.3021 32.536C85.3617 32.5387 85.4129 32.5508 85.4636 32.5628C85.4638 32.5628 85.464 32.5629 85.4643 32.563C85.4677 32.5638 85.4712 32.5646 85.4746 32.5654C85.8618 32.5562 86.2491 32.5461 86.6363 32.5354C86.6699 32.5324 86.7038 32.5293 86.7374 32.5263C86.9016 32.5116 87.0611 32.4973 87.1651 32.4771C87.2779 32.4551 87.5613 32.4423 87.86 32.4289C88.0556 32.4201 88.2579 32.411 88.423 32.3988C88.5195 32.3917 88.611 32.4041 88.7052 32.4169C88.7931 32.4288 88.8834 32.4411 88.982 32.438C89.0314 32.4365 89.0848 32.4314 89.1417 32.4259C89.1919 32.421 89.2449 32.4159 89.3004 32.4128C89.352 32.4099 89.4668 32.4166 89.6141 32.4252C89.7051 32.4305 89.8085 32.4365 89.917 32.4415C90.2039 32.4337 90.4908 32.4263 90.7776 32.4194C90.8375 32.4085 90.8894 32.3944 90.9305 32.3763C90.96 32.3633 90.9851 32.3477 91.0109 32.3318C91.046 32.3102 91.0823 32.2878 91.1324 32.27C91.1715 32.2561 91.2177 32.2505 91.2486 32.2563C91.2631 32.259 91.2741 32.2641 91.2842 32.2687C91.2957 32.274 91.306 32.2786 91.3186 32.2785C91.3276 32.2784 91.337 32.2747 91.3486 32.2702C91.3671 32.2629 91.3912 32.2536 91.4278 32.2533C91.5641 32.2521 91.719 32.2551 91.8708 32.258C92.0395 32.2613 92.2044 32.2644 92.3359 32.2617C92.4831 32.2585 92.6928 32.2724 92.9029 32.2862C93.0495 32.2958 93.1963 32.3054 93.3223 32.3093C93.4457 32.3132 93.5742 32.3055 93.6986 32.2981C93.848 32.2891 93.9917 32.2804 94.1138 32.2926C94.1385 32.295 94.1691 32.31 94.2076 32.3288C94.2349 32.3421 94.2662 32.3574 94.302 32.3714C94.4574 32.3714 94.6128 32.372 94.7683 32.3731C94.7737 32.3711 94.7794 32.369 94.785 32.3669C94.7851 32.3669 94.7852 32.3668 94.7853 32.3668C94.913 32.319 95.0876 32.2537 95.3331 32.2926C95.3955 32.3026 95.4347 32.3209 95.4701 32.3373C95.5049 32.3535 95.5359 32.368 95.5814 32.371C95.633 32.3745 95.694 32.3645 95.7604 32.3537C95.8538 32.3386 95.958 32.3216 96.0626 32.3374C96.0697 32.3385 96.0774 32.3397 96.0854 32.3408C96.1612 32.3521 96.2734 32.3687 96.3851 32.4021C96.7165 32.411 97.0478 32.4214 97.3792 32.4328C97.9315 32.4518 98.4839 32.4735 99.0362 32.4952C99.3049 32.5058 99.5625 32.5513 99.7525 32.6241C99.9425 32.6971 100.049 32.7908 100.049 32.8877C100.049 32.9847 99.9425 33.0784 99.7525 33.1513C99.5625 33.2241 99.3049 33.2696 99.0362 33.2803C98.598 33.2974 98.1598 33.3146 97.7216 33.3305C97.6986 33.3325 97.6756 33.3345 97.6526 33.3363C97.4818 33.3499 97.3233 33.3772 97.1647 33.4045C97.1283 33.4108 97.0918 33.417 97.0552 33.4232Z" fill="black"/>
<path d="M100.619 21.2315C100.666 21.4346 100.647 21.8263 100.636 22.0418C100.636 22.0457 100.636 22.0497 100.636 22.0536C100.634 22.1048 100.633 22.1531 100.632 22.2098C100.631 22.3449 100.628 22.5275 100.599 22.9086C100.6 23.0194 100.6 23.1303 100.6 23.2412C100.6 24.4386 100.562 25.6359 100.515 26.8333C100.516 26.8484 100.516 26.8638 100.516 26.8793C100.521 27.1796 100.527 27.552 100.51 27.786C100.488 28.0835 100.468 28.2855 100.451 28.4515C100.414 29.4025 100.381 30.3536 100.367 31.3046C100.363 31.6027 100.36 31.9008 100.36 32.1988C100.36 32.4733 100.362 32.7479 100.364 33.0223C100.375 33.1822 100.387 33.3342 100.398 33.4751C100.413 33.6731 100.427 33.8494 100.432 33.9951C100.443 34.3459 100.425 34.7439 100.413 35.0395C100.411 35.0878 100.409 35.1334 100.407 35.1756C100.413 35.4103 100.42 35.6451 100.427 35.8799C100.423 35.8955 100.419 35.9113 100.415 35.9274C100.363 36.1277 100.364 36.374 100.365 36.7617C100.365 36.9305 100.366 37.1261 100.362 37.3565C100.36 37.5049 100.339 37.5812 100.323 37.6435C100.318 37.6618 100.313 37.679 100.31 37.6964C100.297 37.756 100.311 37.8189 100.327 37.8931C100.348 37.9894 100.373 38.105 100.35 38.2577C100.278 38.7442 100.327 38.9585 100.364 39.1207C100.375 39.1682 100.385 39.2113 100.39 39.2555C100.408 39.3986 100.391 39.6025 100.366 39.7566C100.347 39.8788 100.366 40.1233 100.39 40.3088C100.4 40.3789 100.4 40.4737 100.4 40.5853C100.4 40.7009 100.4 40.8346 100.411 40.9776C100.437 41.3391 100.449 41.5312 100.459 41.6856C100.462 41.7297 100.465 41.7707 100.467 41.8116C100.476 41.9411 100.483 42.1017 100.49 42.2644C100.499 42.459 100.508 42.6566 100.519 42.8069C100.507 43.1965 100.492 43.5861 100.477 43.9757C100.469 44.1758 100.424 44.3678 100.351 44.5093C100.278 44.6507 100.183 44.7302 100.084 44.7302C99.9852 44.7302 99.8899 44.6507 99.8168 44.5093C99.7437 44.3678 99.6993 44.1758 99.6914 43.9757C99.6758 43.5726 99.6601 43.1694 99.6476 42.7662C99.6323 42.2752 99.6219 41.784 99.6219 41.2929C99.6219 40.9494 99.6242 40.6059 99.6284 40.2623C99.6289 40.2269 99.6294 40.1916 99.6298 40.1562C99.6055 39.8676 99.5834 39.5795 99.5755 39.3766C99.569 39.209 99.582 39.0869 99.5931 38.9822C99.6007 38.9102 99.6075 38.8465 99.6064 38.7821C99.6058 38.7474 99.6043 38.7002 99.6025 38.6431C99.5952 38.4103 99.5827 38.0148 99.6064 37.654C99.6169 37.494 99.6377 37.308 99.6575 37.1305C99.6859 36.8766 99.7123 36.6399 99.7042 36.5203C99.6899 36.3105 99.702 36.0698 99.7127 35.8571C99.7229 35.6543 99.7318 35.4769 99.7153 35.376C99.6956 35.2554 99.7037 35.1526 99.7155 34.9997C99.7238 34.8937 99.7338 34.7636 99.7379 34.5868C99.7425 34.3826 99.7563 34.2382 99.768 34.1154C99.7845 33.9426 99.7969 33.8126 99.7741 33.6188C99.7488 33.4036 99.7326 33.1786 99.7407 33.0015C99.7443 32.9208 99.7434 32.8285 99.7425 32.7324C99.7413 32.6053 99.74 32.4715 99.7491 32.3494C99.7566 32.2488 99.7758 32.1656 99.7927 32.092C99.798 32.0691 99.8031 32.047 99.8075 32.0257C99.8073 31.9456 99.8069 31.8654 99.8064 31.7853C99.8033 31.7723 99.7998 31.7587 99.7963 31.7444C99.7786 31.673 99.7569 31.5851 99.7461 31.4763C99.729 31.3042 99.7397 31.1531 99.7511 30.9938C99.7599 30.8697 99.7692 30.7407 99.7659 30.5927C99.7636 30.4918 99.7557 30.3769 99.748 30.263C99.7364 30.0938 99.7251 29.9268 99.7323 29.8107C99.735 29.7672 99.7471 29.7299 99.759 29.6929C99.7591 29.6927 99.7592 29.6925 99.7593 29.6924C99.7601 29.6899 99.7609 29.6873 99.7617 29.6848C99.7525 29.4022 99.7424 29.1195 99.7317 28.8368C99.7286 28.8123 99.7256 28.7876 99.7226 28.763C99.7079 28.6432 99.6936 28.5267 99.6733 28.4508C99.6514 28.3685 99.6386 28.1616 99.6252 27.9436C99.6163 27.8008 99.6072 27.6532 99.595 27.5326C99.5879 27.4622 99.6003 27.3954 99.6131 27.3266C99.6251 27.2624 99.6373 27.1966 99.6343 27.1246C99.6328 27.0885 99.6276 27.0495 99.6221 27.008C99.6173 26.9714 99.6122 26.9327 99.609 26.8922C99.6061 26.8545 99.6129 26.7707 99.6215 26.6632C99.6268 26.5968 99.6328 26.5213 99.6377 26.442C99.63 26.2326 99.6226 26.0232 99.6157 25.8138C99.6048 25.7701 99.5907 25.7322 99.5726 25.7022C99.5596 25.6807 99.544 25.6624 99.5281 25.6435C99.5065 25.6179 99.4841 25.5914 99.4663 25.5549C99.4524 25.5263 99.4468 25.4926 99.4526 25.47C99.4553 25.4595 99.4604 25.4514 99.465 25.444C99.4702 25.4356 99.4749 25.4281 99.4748 25.419C99.4747 25.4124 99.4709 25.4055 99.4664 25.397C99.4592 25.3835 99.4499 25.3659 99.4496 25.3392C99.4484 25.2397 99.4513 25.1267 99.4543 25.0159C99.4575 24.8927 99.4607 24.7723 99.4579 24.6764C99.4548 24.5689 99.4687 24.4158 99.4825 24.2624C99.4921 24.1554 99.5017 24.0483 99.5056 23.9564C99.5095 23.8663 99.5018 23.7725 99.4943 23.6816C99.4854 23.5726 99.4767 23.4677 99.4888 23.3786C99.4913 23.3606 99.5063 23.3382 99.5251 23.3101C99.5384 23.2902 99.5536 23.2673 99.5677 23.2412C99.5677 23.1278 99.5683 23.0143 99.5694 22.9008C99.5674 22.8968 99.5653 22.8927 99.5632 22.8886C99.5631 22.8885 99.5631 22.8885 99.563 22.8884C99.5153 22.7952 99.4499 22.6677 99.4889 22.4885C99.4988 22.443 99.5171 22.4143 99.5336 22.3885C99.5498 22.3631 99.5642 22.3405 99.5673 22.3073C99.5707 22.2696 99.5608 22.2251 99.55 22.1766C99.5348 22.1085 99.5179 22.0324 99.5337 21.956C99.5347 21.9508 99.5359 21.9452 99.5371 21.9394C99.5483 21.884 99.5649 21.8021 99.5983 21.7206C99.6073 21.4787 99.6177 21.2368 99.6291 20.995C99.6481 20.5918 99.6698 20.1886 99.6914 19.7854C99.7021 19.5893 99.7476 19.4012 99.8204 19.2625C99.8933 19.1238 99.9871 19.0459 100.084 19.0459C100.181 19.0459 100.275 19.1238 100.348 19.2625C100.42 19.4012 100.466 19.5893 100.477 19.7854C100.494 20.1053 100.511 20.4252 100.527 20.745C100.529 20.7618 100.531 20.7786 100.533 20.7954C100.546 20.9201 100.573 21.0358 100.601 21.1515C100.607 21.1781 100.613 21.2048 100.619 21.2315Z" fill="black"/>
<path d="M65.2847 21.2315C65.3311 21.4346 65.3122 21.8263 65.3018 22.0418C65.3016 22.0457 65.3014 22.0497 65.3012 22.0536C65.2988 22.1048 65.2981 22.1531 65.2974 22.2098C65.2958 22.3449 65.2935 22.5275 65.2639 22.9086C65.265 23.0194 65.2656 23.1303 65.2656 23.2412C65.2656 24.4386 65.2269 25.6359 65.1807 26.8333C65.1809 26.8484 65.1812 26.8638 65.1814 26.8793C65.1862 27.1796 65.1921 27.552 65.1752 27.786C65.1536 28.0835 65.1336 28.2855 65.1164 28.4515C65.0791 29.4025 65.0459 30.3536 65.0321 31.3046C65.0278 31.6027 65.0255 31.9008 65.0255 32.1988C65.0255 32.4733 65.027 32.7479 65.0297 33.0223C65.0398 33.1822 65.0518 33.3342 65.063 33.4751C65.0786 33.6731 65.0925 33.8494 65.097 33.9951C65.108 34.3459 65.0907 34.7439 65.0779 35.0395C65.0758 35.0878 65.0738 35.1334 65.0721 35.1756C65.0785 35.4103 65.0853 35.6451 65.0922 35.8799C65.0883 35.8955 65.0843 35.9113 65.0802 35.9274C65.0287 36.1277 65.0294 36.374 65.0303 36.7617C65.0307 36.9305 65.0312 37.1261 65.0275 37.3565C65.0251 37.5049 65.0046 37.5812 64.988 37.6435C64.9831 37.6618 64.9785 37.679 64.9748 37.6964C64.9621 37.756 64.9758 37.8189 64.992 37.8931C65.013 37.9894 65.0382 38.105 65.0154 38.2577C64.9428 38.7442 64.9921 38.9585 65.0294 39.1207C65.0403 39.1682 65.0502 39.2113 65.0557 39.2555C65.0734 39.3986 65.0558 39.6025 65.0316 39.7566C65.0124 39.8788 65.0315 40.1233 65.0557 40.3088C65.0648 40.3789 65.065 40.4737 65.0652 40.5853C65.0655 40.7009 65.0657 40.8346 65.0759 40.9776C65.1019 41.3391 65.1144 41.5312 65.1245 41.6856C65.1274 41.7297 65.13 41.7707 65.1327 41.8116C65.1413 41.9411 65.1484 42.1017 65.1556 42.2644C65.1641 42.459 65.1728 42.6566 65.1844 42.8069C65.1721 43.1965 65.1569 43.5861 65.1418 43.9757C65.1339 44.1758 65.0896 44.3678 65.0165 44.5093C64.9434 44.6507 64.8481 44.7302 64.7493 44.7302C64.6505 44.7302 64.5551 44.6507 64.482 44.5093C64.4089 44.3678 64.3646 44.1758 64.3567 43.9757C64.341 43.5726 64.3253 43.1694 64.3128 42.7662C64.2976 42.2752 64.2871 41.784 64.2871 41.2929C64.2871 40.9494 64.2895 40.6059 64.2937 40.2623C64.2941 40.2269 64.2946 40.1916 64.2951 40.1562C64.2708 39.8676 64.2486 39.5795 64.2407 39.3766C64.2342 39.209 64.2472 39.0869 64.2583 38.9822C64.266 38.9102 64.2727 38.8465 64.2717 38.7821C64.2711 38.7474 64.2696 38.7002 64.2678 38.6431C64.2604 38.4103 64.2479 38.0148 64.2717 37.654C64.2822 37.494 64.303 37.308 64.3228 37.1305C64.3511 36.8766 64.3775 36.6399 64.3694 36.5203C64.3552 36.3105 64.3672 36.0698 64.3779 35.8571C64.3881 35.6543 64.397 35.4769 64.3806 35.376C64.3609 35.2554 64.3689 35.1526 64.3808 34.9997C64.389 34.8937 64.3991 34.7636 64.4031 34.5868C64.4078 34.3826 64.4216 34.2382 64.4333 34.1154C64.4498 33.9426 64.4622 33.8126 64.4394 33.6188C64.414 33.4036 64.3979 33.1786 64.4059 33.0015C64.4096 32.9208 64.4087 32.8285 64.4077 32.7324C64.4065 32.6053 64.4052 32.4715 64.4143 32.3494C64.4218 32.2488 64.441 32.1656 64.458 32.092C64.4633 32.0691 64.4683 32.047 64.4728 32.0257C64.4725 31.9456 64.4722 31.8654 64.4716 31.7853C64.4685 31.7723 64.4651 31.7587 64.4616 31.7444C64.4439 31.673 64.4222 31.5851 64.4113 31.4763C64.3942 31.3042 64.4049 31.1531 64.4163 30.9938C64.4252 30.8697 64.4344 30.7407 64.4311 30.5927C64.4288 30.4918 64.421 30.3769 64.4132 30.263C64.4017 30.0938 64.3903 29.9268 64.3976 29.8107C64.4003 29.7672 64.4123 29.7299 64.4243 29.6929C64.4244 29.6927 64.4244 29.6925 64.4245 29.6924C64.4253 29.6899 64.4261 29.6873 64.4269 29.6848C64.4178 29.4022 64.4076 29.1195 64.397 28.8368C64.3939 28.8123 64.3908 28.7876 64.3878 28.763C64.3731 28.6432 64.3589 28.5267 64.3386 28.4508C64.3166 28.3685 64.3039 28.1616 64.2904 27.9436C64.2816 27.8008 64.2725 27.6532 64.2603 27.5326C64.2532 27.4622 64.2656 27.3954 64.2784 27.3266C64.2903 27.2624 64.3026 27.1966 64.2996 27.1246C64.298 27.0885 64.2929 27.0495 64.2874 27.008C64.2826 26.9714 64.2774 26.9327 64.2743 26.8922C64.2714 26.8545 64.2781 26.7707 64.2867 26.6632C64.2921 26.5968 64.2981 26.5213 64.303 26.442C64.2953 26.2326 64.2879 26.0232 64.281 25.8138C64.2701 25.7701 64.2559 25.7322 64.2378 25.7022C64.2248 25.6807 64.2093 25.6624 64.1934 25.6435C64.1717 25.6179 64.1494 25.5914 64.1315 25.5549C64.1176 25.5263 64.1121 25.4926 64.1178 25.47C64.1205 25.4595 64.1256 25.4514 64.1302 25.444C64.1355 25.4356 64.1402 25.4281 64.14 25.419C64.1399 25.4124 64.1362 25.4055 64.1317 25.397C64.1245 25.3835 64.1152 25.3659 64.1148 25.3392C64.1136 25.2397 64.1166 25.1267 64.1195 25.0159C64.1228 24.8927 64.126 24.7723 64.1232 24.6764C64.1201 24.5689 64.1339 24.4158 64.1477 24.2624C64.1574 24.1554 64.1669 24.0483 64.1709 23.9564C64.1747 23.8663 64.1671 23.7725 64.1596 23.6816C64.1506 23.5726 64.142 23.4677 64.1541 23.3786C64.1566 23.3606 64.1716 23.3382 64.1904 23.3101C64.2037 23.2902 64.2189 23.2673 64.2329 23.2412C64.2329 23.1278 64.2335 23.0143 64.2347 22.9008C64.2326 22.8968 64.2306 22.8927 64.2284 22.8886C64.2284 22.8885 64.2283 22.8885 64.2283 22.8884C64.1805 22.7952 64.1152 22.6677 64.1542 22.4885C64.1641 22.443 64.1824 22.4143 64.1988 22.3885C64.215 22.3631 64.2295 22.3405 64.2325 22.3073C64.236 22.2696 64.2261 22.2251 64.2153 22.1766C64.2001 22.1085 64.1831 22.0324 64.1989 21.956C64.2 21.9508 64.2012 21.9452 64.2024 21.9394C64.2136 21.884 64.2302 21.8021 64.2636 21.7206C64.2725 21.4787 64.283 21.2368 64.2944 20.995C64.3134 20.5918 64.335 20.1886 64.3567 19.7854C64.3673 19.5893 64.4128 19.4012 64.4857 19.2625C64.5586 19.1238 64.6523 19.0459 64.7493 19.0459C64.8462 19.0459 64.9399 19.1238 65.0128 19.2625C65.0856 19.4012 65.1311 19.5893 65.1418 19.7854C65.159 20.1053 65.1762 20.4252 65.192 20.745C65.194 20.7618 65.196 20.7786 65.1978 20.7954C65.2114 20.9201 65.2387 21.0358 65.266 21.1515C65.2723 21.1781 65.2786 21.2048 65.2847 21.2315Z" fill="black"/>
<path d="M98.8756 14.5274C98.7233 14.1289 98.4886 13.3474 98.3322 12.9243C98.3294 12.9165 98.3266 12.9088 98.3238 12.901C98.2876 12.8004 98.251 12.7062 98.207 12.5964C98.1 12.3358 97.9623 11.9795 97.6279 11.2545C97.5211 11.0483 97.4108 10.8445 97.2965 10.6421C96.065 8.45932 94.3788 6.52745 92.3525 5.02764C92.3264 5.00936 92.2999 4.99085 92.273 4.97222C91.7549 4.60947 91.0834 4.20669 90.6584 3.9569C90.12 3.63747 89.7412 3.43899 89.4291 3.27946C87.6124 2.42398 85.6323 1.89413 83.6205 1.73978C83.2061 1.7078 82.7981 1.69153 82.3818 1.69042C82.1605 1.68987 81.9401 1.69372 81.7209 1.70193C81.1386 1.72371 80.5573 1.77595 79.9803 1.85862C79.6477 1.91481 79.3286 1.98133 79.0392 2.04931C78.6306 2.14511 78.2707 2.2454 77.9746 2.32797C77.2588 2.52479 76.4581 2.78141 75.8737 3.00749C75.7782 3.04401 75.6887 3.07921 75.6058 3.11268C75.1504 3.3135 74.705 3.53397 74.2701 3.7733C74.2391 3.78545 74.2078 3.79766 74.176 3.81015C73.7789 3.96786 73.3205 4.22397 72.6395 4.68543C72.3432 4.88751 72.0062 5.12971 71.6201 5.43031C71.3719 5.62429 71.2356 5.71367 71.1235 5.78661C71.0906 5.80814 71.0598 5.82845 71.0294 5.84981C70.9248 5.92311 70.8331 6.02186 70.7267 6.13971C70.5888 6.29291 70.4262 6.47757 70.1794 6.689C69.3956 7.36925 69.1472 7.76605 68.9555 8.05222C68.9 8.13721 68.8504 8.2146 68.7966 8.29131C68.6214 8.53955 68.3492 8.8745 68.1428 9.12962C67.9772 9.33093 67.7063 9.77474 67.5257 10.125C67.457 10.2569 67.3553 10.4299 67.2404 10.6369C67.1212 10.8513 66.9888 11.1008 66.8635 11.3771C66.5497 12.0751 66.4141 12.4587 66.303 12.7649C66.2719 12.8525 66.2434 12.9344 66.2157 13.0164C66.1281 13.2754 66.0237 13.5967 65.9287 13.9272C65.8152 14.3196 65.7159 14.7265 65.6545 15.0353C65.4518 15.8309 65.3042 16.6375 65.2141 17.4556C65.1676 17.8739 65.1035 18.2777 65.0228 18.5752C64.942 18.8736 64.8484 19.0458 64.7493 19.0459C64.6508 19.0461 64.5536 18.8726 64.4884 18.561C64.4233 18.2508 64.3997 17.8231 64.4323 17.3841C64.4978 16.4963 64.6281 15.6161 64.8278 14.7455C65.0704 13.6872 65.4147 12.6505 65.8591 11.6583C66.1695 10.9649 66.5271 10.2905 66.926 9.64424C66.9672 9.57757 67.0088 9.51121 67.0508 9.44516C67.3686 8.89087 67.7236 8.35819 67.9926 7.99689C68.2144 7.69817 68.3975 7.49755 68.5558 7.32768C68.665 7.21092 68.7628 7.10904 68.8569 7.00173C68.9075 6.9441 68.9764 6.86523 69.0607 6.77109C69.4027 6.38533 70.0155 5.75413 70.6418 5.25599C70.9185 5.03362 71.2522 4.79212 71.5786 4.57325C72.0441 4.25955 72.4942 3.9944 72.712 3.84657C73.0944 3.58508 73.5594 3.32816 73.9787 3.11933C74.3782 2.91934 74.7355 2.76117 74.9307 2.65441C75.1643 2.52688 75.3764 2.44319 75.6925 2.32886C75.9122 2.25 76.1839 2.1557 76.5523 2.03349C76.9793 1.89265 77.2876 1.81674 77.5504 1.75523C77.9219 1.66972 78.1986 1.61299 78.6105 1.50057C79.0662 1.3765 79.5551 1.2781 79.9402 1.23447C80.1162 1.21422 80.3177 1.18875 80.5287 1.16624C80.8055 1.13653 81.0984 1.11234 81.368 1.10657C81.5899 1.10179 81.7714 1.11465 81.9334 1.12759C81.9838 1.13165 82.0322 1.13573 82.0791 1.13939C82.1798 1.13759 82.2807 1.13657 82.3818 1.13634C82.4573 1.13616 82.5326 1.13643 82.6079 1.13711C82.6364 1.13438 82.6664 1.1314 82.6977 1.12841C82.8549 1.11346 83.0483 1.09689 83.2864 1.09781C83.6671 1.09981 83.9963 1.13741 84.3434 1.18631C84.6147 1.2248 84.8932 1.27003 85.2147 1.31754C85.4346 1.35003 85.6846 1.38633 85.9308 1.42782C86.2982 1.4893 86.6588 1.56383 86.9035 1.63495C86.9957 1.66164 87.0722 1.69462 87.1475 1.7277C87.1478 1.72787 87.1481 1.72803 87.1485 1.7282C87.1536 1.73045 87.1587 1.73269 87.1638 1.73493C87.7644 1.89095 88.3578 2.07764 88.9414 2.2949C88.9927 2.31169 89.0444 2.32895 89.0956 2.34631C89.3455 2.43084 89.5871 2.52003 89.7483 2.57019C89.9232 2.62396 90.3443 2.8035 90.7776 3.01661C91.061 3.15514 91.3514 3.30799 91.5872 3.4334C91.7251 3.50666 91.8454 3.59439 91.9679 3.68602C92.082 3.77153 92.198 3.8604 92.3325 3.94556C92.3999 3.98824 92.4742 4.03175 92.5535 4.07908C92.6232 4.1207 92.6967 4.16518 92.772 4.21417C92.8419 4.25972 92.9898 4.37231 93.1754 4.52119C93.2902 4.61322 93.4195 4.71929 93.5541 4.83152C93.9226 5.1117 94.2808 5.40675 94.6267 5.7153C94.7053 5.77273 94.7763 5.81982 94.8371 5.85236C94.8808 5.87571 94.921 5.89253 94.9623 5.91002C95.0184 5.93383 95.0765 5.95876 95.1472 6.00306C95.2025 6.03767 95.2599 6.08673 95.2915 6.12654C95.3063 6.14508 95.3154 6.16146 95.3237 6.17632C95.3332 6.19335 95.3417 6.20854 95.3562 6.22298C95.3666 6.2334 95.38 6.2417 95.3965 6.252C95.4228 6.26845 95.4569 6.28995 95.4987 6.3326C95.6543 6.49125 95.8249 6.67788 95.9877 6.86413C96.1689 7.07112 96.3408 7.27792 96.4791 7.44156C96.6342 7.62452 96.8364 7.90106 97.0291 8.18412C97.1636 8.38129 97.2941 8.58152 97.4067 8.7527C97.5172 8.92052 97.6387 9.09004 97.7539 9.25683C97.8923 9.45688 98.0214 9.65273 98.1114 9.83012C98.1296 9.86601 98.1418 9.91667 98.1567 9.98019C98.1673 10.0252 98.1794 10.077 98.1956 10.1343C98.3197 10.3539 98.4382 10.5758 98.5518 10.8006C98.5577 10.8076 98.5637 10.8148 98.5697 10.822C98.5698 10.8222 98.5699 10.8223 98.57 10.8224C98.7062 10.985 98.8925 11.2122 99.0209 11.593C99.0534 11.6898 99.0622 11.7557 99.07 11.815C99.0776 11.8733 99.0843 11.9254 99.1102 11.9945C99.1395 12.0728 99.1864 12.16 99.2367 12.2559C99.3074 12.3905 99.3847 12.5425 99.4293 12.7076C99.4323 12.7188 99.4355 12.731 99.4389 12.7436C99.4712 12.8631 99.517 13.0395 99.5434 13.2215C99.7075 13.7331 99.8466 14.2505 99.9615 14.7731C100.153 15.6464 100.276 16.5286 100.334 17.4169C100.362 17.8478 100.337 18.2664 100.272 18.5705C100.206 18.876 100.111 19.0461 100.014 19.0459C99.917 19.0458 99.8251 18.8769 99.7447 18.5843C99.6645 18.2924 99.6001 17.8971 99.5523 17.487C99.475 16.8166 99.3584 16.1511 99.2049 15.4973C99.1957 15.4631 99.1864 15.4288 99.1772 15.3947C99.1083 15.1408 99.025 14.9121 98.937 14.6844C98.9168 14.632 98.8962 14.5797 98.8756 14.5274Z" fill="black"/>
<path d="M146.93 21.2315C146.977 21.4346 146.958 21.8263 146.948 22.0418C146.947 22.0457 146.947 22.0497 146.947 22.0536C146.945 22.1048 146.944 22.1531 146.943 22.2098C146.942 22.3449 146.939 22.5275 146.91 22.9086C146.911 23.0194 146.911 23.1303 146.911 23.2412C146.911 24.4386 146.873 25.6359 146.826 26.8333C146.827 26.8484 146.827 26.8638 146.827 26.8793C146.832 27.1796 146.838 27.552 146.821 27.786C146.799 28.0835 146.779 28.2855 146.762 28.4515C146.725 29.4025 146.692 30.3536 146.678 31.3046C146.674 31.6027 146.671 31.9008 146.671 32.1988C146.671 32.4733 146.673 32.7479 146.676 33.0223C146.686 33.1822 146.698 33.3342 146.709 33.4751C146.724 33.6731 146.738 33.8494 146.743 33.9951C146.754 34.3459 146.737 34.7439 146.724 35.0395C146.722 35.0878 146.72 35.1334 146.718 35.1756C146.724 35.4103 146.731 35.6451 146.738 35.8799C146.734 35.8955 146.73 35.9113 146.726 35.9274C146.675 36.1277 146.675 36.374 146.676 36.7617C146.677 36.9305 146.677 37.1261 146.673 37.3565C146.671 37.5049 146.65 37.5812 146.634 37.6435C146.629 37.6618 146.624 37.679 146.621 37.6964C146.608 37.756 146.622 37.8189 146.638 37.8931C146.659 37.9894 146.684 38.105 146.661 38.2577C146.589 38.7442 146.638 38.9585 146.675 39.1207C146.686 39.1682 146.696 39.2113 146.701 39.2555C146.719 39.3986 146.702 39.6025 146.677 39.7566C146.658 39.8788 146.677 40.1233 146.701 40.3088C146.711 40.3789 146.711 40.4737 146.711 40.5853C146.711 40.7009 146.711 40.8346 146.722 40.9776C146.748 41.3391 146.76 41.5312 146.77 41.6856C146.773 41.7297 146.776 41.7707 146.779 41.8116C146.787 41.9411 146.794 42.1017 146.801 42.2644C146.81 42.459 146.819 42.6566 146.83 42.8069C146.818 43.1965 146.803 43.5861 146.788 43.9757C146.78 44.1758 146.735 44.3678 146.662 44.5093C146.589 44.6507 146.494 44.7302 146.395 44.7302C146.296 44.7302 146.201 44.6507 146.128 44.5093C146.055 44.3678 146.01 44.1758 146.003 43.9757C145.987 43.5726 145.971 43.1694 145.959 42.7662C145.943 42.2752 145.933 41.784 145.933 41.2929C145.933 40.9494 145.935 40.6059 145.94 40.2623C145.94 40.2269 145.94 40.1916 145.941 40.1562C145.917 39.8676 145.894 39.5795 145.887 39.3766C145.88 39.209 145.893 39.0869 145.904 38.9822C145.912 38.9102 145.919 38.8465 145.917 38.7821C145.917 38.7474 145.915 38.7002 145.914 38.6431C145.906 38.4103 145.894 38.0148 145.917 37.654C145.928 37.494 145.949 37.308 145.969 37.1305C145.997 36.8766 146.023 36.6399 146.015 36.5203C146.001 36.3105 146.013 36.0698 146.024 35.8571C146.034 35.6543 146.043 35.4769 146.026 35.376C146.007 35.2554 146.015 35.1526 146.027 34.9997C146.035 34.8937 146.045 34.7636 146.049 34.5868C146.054 34.3826 146.067 34.2382 146.079 34.1154C146.096 33.9426 146.108 33.8126 146.085 33.6188C146.06 33.4036 146.044 33.1786 146.052 33.0015C146.055 32.9208 146.054 32.8285 146.054 32.7324C146.052 32.6053 146.051 32.4715 146.06 32.3494C146.068 32.2488 146.087 32.1656 146.104 32.092C146.109 32.0691 146.114 32.047 146.119 32.0257C146.118 31.9456 146.118 31.8654 146.117 31.7853C146.114 31.7723 146.111 31.7587 146.107 31.7444C146.09 31.673 146.068 31.5851 146.057 31.4763C146.04 31.3042 146.051 31.1531 146.062 30.9938C146.071 30.8697 146.08 30.7407 146.077 30.5927C146.075 30.4918 146.067 30.3769 146.059 30.263C146.048 30.0938 146.036 29.9268 146.043 29.8107C146.046 29.7672 146.058 29.7299 146.07 29.6929C146.07 29.6927 146.07 29.6925 146.07 29.6924C146.071 29.6899 146.072 29.6873 146.073 29.6848C146.064 29.4022 146.053 29.1195 146.043 28.8368C146.04 28.8123 146.037 28.7876 146.034 28.763C146.019 28.6432 146.005 28.5267 145.984 28.4508C145.962 28.3685 145.95 28.1616 145.936 27.9436C145.927 27.8008 145.918 27.6532 145.906 27.5326C145.899 27.4622 145.911 27.3954 145.924 27.3266C145.936 27.2624 145.948 27.1966 145.945 27.1246C145.944 27.0885 145.939 27.0495 145.933 27.008C145.928 26.9714 145.923 26.9327 145.92 26.8922C145.917 26.8545 145.924 26.7707 145.933 26.6632C145.938 26.5968 145.944 26.5213 145.949 26.442C145.941 26.2326 145.934 26.0232 145.927 25.8138C145.916 25.7701 145.902 25.7322 145.884 25.7022C145.871 25.6807 145.855 25.6624 145.839 25.6435C145.818 25.6179 145.795 25.5914 145.777 25.5549C145.763 25.5263 145.758 25.4926 145.764 25.47C145.766 25.4595 145.771 25.4514 145.776 25.444C145.781 25.4356 145.786 25.4281 145.786 25.419C145.786 25.4124 145.782 25.4055 145.777 25.397C145.77 25.3835 145.761 25.3659 145.761 25.3392C145.759 25.2397 145.762 25.1267 145.765 25.0159C145.769 24.8927 145.772 24.7723 145.769 24.6764C145.766 24.5689 145.78 24.4158 145.794 24.2624C145.803 24.1554 145.813 24.0483 145.817 23.9564C145.821 23.8663 145.813 23.7725 145.805 23.6816C145.796 23.5726 145.788 23.4677 145.8 23.3786C145.802 23.3606 145.817 23.3382 145.836 23.3101C145.849 23.2902 145.865 23.2673 145.879 23.2412C145.879 23.1278 145.879 23.0143 145.88 22.9008C145.878 22.8968 145.876 22.8927 145.874 22.8886C145.874 22.8885 145.874 22.8885 145.874 22.8884C145.826 22.7952 145.761 22.6677 145.8 22.4885C145.81 22.443 145.828 22.4143 145.845 22.3885C145.861 22.3631 145.875 22.3405 145.878 22.3073C145.882 22.2696 145.872 22.2251 145.861 22.1766C145.846 22.1085 145.829 22.0324 145.845 21.956C145.846 21.9508 145.847 21.9452 145.848 21.9394C145.859 21.884 145.876 21.8021 145.909 21.7206C145.918 21.4787 145.929 21.2368 145.94 20.995C145.959 20.5918 145.981 20.1886 146.003 19.7854C146.013 19.5893 146.059 19.4012 146.131 19.2625C146.204 19.1238 146.298 19.0459 146.395 19.0459C146.492 19.0459 146.586 19.1238 146.659 19.2625C146.731 19.4012 146.777 19.5893 146.788 19.7854C146.805 20.1053 146.822 20.4252 146.838 20.745C146.84 20.7618 146.842 20.7786 146.844 20.7954C146.857 20.9201 146.885 21.0358 146.912 21.1515C146.918 21.1781 146.924 21.2048 146.93 21.2315Z" fill="black"/>
<path d="M111.596 21.2315C111.642 21.4346 111.623 21.8263 111.613 22.0418C111.613 22.0457 111.612 22.0497 111.612 22.0536C111.61 22.1048 111.609 22.1531 111.608 22.2098C111.607 22.3449 111.605 22.5275 111.575 22.9086C111.576 23.0194 111.577 23.1303 111.577 23.2412C111.577 24.4386 111.538 25.6359 111.492 26.8333C111.492 26.8484 111.492 26.8638 111.492 26.8793C111.497 27.1796 111.503 27.552 111.486 27.786C111.465 28.0835 111.445 28.2855 111.427 28.4515C111.39 29.4025 111.357 30.3536 111.343 31.3046C111.339 31.6027 111.336 31.9008 111.336 32.1988C111.336 32.4733 111.338 32.7479 111.341 33.0223C111.351 33.1822 111.363 33.3342 111.374 33.4751C111.39 33.6731 111.404 33.8494 111.408 33.9951C111.419 34.3459 111.402 34.7439 111.389 35.0395C111.387 35.0878 111.385 35.1334 111.383 35.1756C111.389 35.4103 111.396 35.6451 111.403 35.8799C111.399 35.8955 111.395 35.9113 111.391 35.9274C111.34 36.1277 111.34 36.374 111.341 36.7617C111.342 36.9305 111.342 37.1261 111.338 37.3565C111.336 37.5049 111.316 37.5812 111.299 37.6435C111.294 37.6618 111.29 37.679 111.286 37.6964C111.273 37.756 111.287 37.8189 111.303 37.8931C111.324 37.9894 111.349 38.105 111.326 38.2577C111.254 38.7442 111.303 38.9585 111.34 39.1207C111.351 39.1682 111.361 39.2113 111.367 39.2555C111.384 39.3986 111.367 39.6025 111.343 39.7566C111.323 39.8788 111.342 40.1233 111.367 40.3088C111.376 40.3789 111.376 40.4737 111.376 40.5853C111.376 40.7009 111.377 40.8346 111.387 40.9776C111.413 41.3391 111.425 41.5312 111.436 41.6856C111.438 41.7297 111.441 41.7707 111.444 41.8116C111.452 41.9411 111.459 42.1017 111.467 42.2644C111.475 42.459 111.484 42.6566 111.495 42.8069C111.483 43.1965 111.468 43.5861 111.453 43.9757C111.445 44.1758 111.401 44.3678 111.328 44.5093C111.254 44.6507 111.159 44.7302 111.06 44.7302C110.961 44.7302 110.866 44.6507 110.793 44.5093C110.72 44.3678 110.676 44.1758 110.668 43.9757C110.652 43.5726 110.636 43.1694 110.624 42.7662C110.609 42.2752 110.598 41.784 110.598 41.2929C110.598 40.9494 110.6 40.6059 110.605 40.2623C110.605 40.2269 110.606 40.1916 110.606 40.1562C110.582 39.8676 110.56 39.5795 110.552 39.3766C110.545 39.209 110.558 39.0869 110.569 38.9822C110.577 38.9102 110.584 38.8465 110.583 38.7821C110.582 38.7474 110.581 38.7002 110.579 38.6431C110.571 38.4103 110.559 38.0148 110.583 37.654C110.593 37.494 110.614 37.308 110.634 37.1305C110.662 36.8766 110.689 36.6399 110.68 36.5203C110.666 36.3105 110.678 36.0698 110.689 35.8571C110.699 35.6543 110.708 35.4769 110.692 35.376C110.672 35.2554 110.68 35.1526 110.692 34.9997C110.7 34.8937 110.71 34.7636 110.714 34.5868C110.719 34.3826 110.733 34.2382 110.744 34.1154C110.761 33.9426 110.773 33.8126 110.75 33.6188C110.725 33.4036 110.709 33.1786 110.717 33.0015C110.721 32.9208 110.72 32.8285 110.719 32.7324C110.718 32.6053 110.716 32.4715 110.725 32.3494C110.733 32.2488 110.752 32.1656 110.769 32.092C110.774 32.0691 110.779 32.047 110.784 32.0257C110.784 31.9456 110.783 31.8654 110.783 31.7853C110.78 31.7723 110.776 31.7587 110.773 31.7444C110.755 31.673 110.733 31.5851 110.722 31.4763C110.705 31.3042 110.716 31.1531 110.727 30.9938C110.736 30.8697 110.745 30.7407 110.742 30.5927C110.74 30.4918 110.732 30.3769 110.724 30.263C110.713 30.0938 110.701 29.9268 110.709 29.8107C110.711 29.7672 110.723 29.7299 110.735 29.6929C110.735 29.6927 110.735 29.6925 110.736 29.6924C110.736 29.6899 110.737 29.6873 110.738 29.6848C110.729 29.4022 110.719 29.1195 110.708 28.8368C110.705 28.8123 110.702 28.7876 110.699 28.763C110.684 28.6432 110.67 28.5267 110.65 28.4508C110.628 28.3685 110.615 28.1616 110.601 27.9436C110.593 27.8008 110.584 27.6532 110.571 27.5326C110.564 27.4622 110.577 27.3954 110.589 27.3266C110.601 27.2624 110.614 27.1966 110.611 27.1246C110.609 27.0885 110.604 27.0495 110.598 27.008C110.594 26.9714 110.588 26.9327 110.585 26.8922C110.582 26.8545 110.589 26.7707 110.598 26.6632C110.603 26.5968 110.609 26.5213 110.614 26.442C110.606 26.2326 110.599 26.0232 110.592 25.8138C110.581 25.7701 110.567 25.7322 110.549 25.7022C110.536 25.6807 110.52 25.6624 110.504 25.6435C110.483 25.6179 110.46 25.5914 110.443 25.5549C110.429 25.5263 110.423 25.4926 110.429 25.47C110.432 25.4595 110.437 25.4514 110.441 25.444C110.447 25.4356 110.451 25.4281 110.451 25.419C110.451 25.4124 110.447 25.4055 110.443 25.397C110.435 25.3835 110.426 25.3659 110.426 25.3392C110.425 25.2397 110.428 25.1267 110.431 25.0159C110.434 24.8927 110.437 24.7723 110.434 24.6764C110.431 24.5689 110.445 24.4158 110.459 24.2624C110.468 24.1554 110.478 24.0483 110.482 23.9564C110.486 23.8663 110.478 23.7725 110.471 23.6816C110.462 23.5726 110.453 23.4677 110.465 23.3786C110.468 23.3606 110.483 23.3382 110.501 23.3101C110.515 23.2902 110.53 23.2673 110.544 23.2412C110.544 23.1278 110.545 23.0143 110.546 22.9008C110.544 22.8968 110.542 22.8927 110.539 22.8886C110.539 22.8885 110.539 22.8885 110.539 22.8884C110.492 22.7952 110.426 22.6677 110.465 22.4885C110.475 22.443 110.493 22.4143 110.51 22.3885C110.526 22.3631 110.541 22.3405 110.544 22.3073C110.547 22.2696 110.537 22.2251 110.526 22.1766C110.511 22.1085 110.494 22.0324 110.51 21.956C110.511 21.9508 110.512 21.9452 110.513 21.9394C110.525 21.884 110.541 21.8021 110.575 21.7206C110.584 21.4787 110.594 21.2368 110.605 20.995C110.624 20.5918 110.646 20.1886 110.668 19.7854C110.678 19.5893 110.724 19.4012 110.797 19.2625C110.87 19.1238 110.963 19.0459 111.06 19.0459C111.157 19.0459 111.251 19.1238 111.324 19.2625C111.397 19.4012 111.442 19.5893 111.453 19.7854C111.47 20.1053 111.487 20.4252 111.503 20.745C111.505 20.7618 111.507 20.7786 111.509 20.7954C111.522 20.9201 111.55 21.0358 111.577 21.1515C111.583 21.1781 111.59 21.2048 111.596 21.2315Z" fill="black"/>
<path d="M145.187 14.5274C145.034 14.1289 144.8 13.3474 144.643 12.9243C144.64 12.9165 144.638 12.9088 144.635 12.901C144.599 12.8004 144.562 12.7062 144.518 12.5964C144.411 12.3358 144.273 11.9795 143.939 11.2545C143.832 11.0483 143.722 10.8445 143.607 10.6421C142.376 8.45932 140.69 6.52745 138.663 5.02764C138.637 5.00936 138.611 4.99085 138.584 4.97222C138.066 4.60947 137.394 4.20669 136.969 3.9569C136.431 3.63747 136.052 3.43899 135.74 3.27946C133.923 2.42398 131.943 1.89413 129.932 1.73978C129.517 1.7078 129.109 1.69153 128.693 1.69042C128.472 1.68987 128.251 1.69372 128.032 1.70193C127.45 1.72371 126.868 1.77595 126.291 1.85862C125.959 1.91481 125.64 1.98133 125.35 2.04931C124.942 2.14511 124.582 2.2454 124.286 2.32797C123.57 2.52479 122.769 2.78141 122.185 3.00749C122.089 3.04401 122 3.07921 121.917 3.11268C121.461 3.3135 121.016 3.53397 120.581 3.7733C120.55 3.78545 120.519 3.79766 120.487 3.81015C120.09 3.96786 119.632 4.22397 118.951 4.68543C118.654 4.88751 118.317 5.12971 117.931 5.43031C117.683 5.62429 117.547 5.71367 117.435 5.78661C117.402 5.80814 117.371 5.82845 117.34 5.84981C117.236 5.92311 117.144 6.02186 117.038 6.13971C116.9 6.29291 116.737 6.47757 116.49 6.689C115.707 7.36925 115.458 7.76605 115.267 8.05222C115.211 8.13721 115.161 8.2146 115.108 8.29131C114.932 8.53955 114.66 8.8745 114.454 9.12962C114.288 9.33093 114.017 9.77474 113.837 10.125C113.768 10.2569 113.666 10.4299 113.551 10.6369C113.432 10.8513 113.3 11.1008 113.174 11.3771C112.861 12.0751 112.725 12.4587 112.614 12.7649C112.583 12.8525 112.554 12.9344 112.527 13.0164C112.439 13.2754 112.335 13.5967 112.24 13.9272C112.126 14.3196 112.027 14.7265 111.965 15.0353C111.763 15.8309 111.615 16.6375 111.525 17.4556C111.479 17.8739 111.415 18.2777 111.334 18.5752C111.253 18.8736 111.159 19.0458 111.06 19.0459C110.962 19.0461 110.865 18.8726 110.799 18.561C110.734 18.2508 110.711 17.8231 110.743 17.3841C110.809 16.4963 110.939 15.6161 111.139 14.7455C111.381 13.6872 111.726 12.6505 112.17 11.6583C112.481 10.9649 112.838 10.2905 113.237 9.64424C113.278 9.57757 113.32 9.51121 113.362 9.44516C113.68 8.89087 114.035 8.35819 114.304 7.99689C114.525 7.69817 114.709 7.49755 114.867 7.32768C114.976 7.21092 115.074 7.10904 115.168 7.00173C115.219 6.9441 115.287 6.86523 115.372 6.77109C115.714 6.38533 116.327 5.75413 116.953 5.25599C117.23 5.03362 117.563 4.79212 117.89 4.57325C118.355 4.25955 118.805 3.9944 119.023 3.84657C119.405 3.58508 119.87 3.32816 120.29 3.11933C120.689 2.91934 121.047 2.76117 121.242 2.65441C121.475 2.52688 121.687 2.44319 122.004 2.32886C122.223 2.25 122.495 2.1557 122.863 2.03349C123.29 1.89265 123.599 1.81674 123.861 1.75523C124.233 1.66972 124.51 1.61299 124.922 1.50057C125.377 1.3765 125.866 1.2781 126.251 1.23447C126.427 1.21422 126.629 1.18875 126.84 1.16624C127.117 1.13653 127.409 1.11234 127.679 1.10657C127.901 1.10179 128.082 1.11465 128.244 1.12759C128.295 1.13165 128.343 1.13573 128.39 1.13939C128.491 1.13759 128.592 1.13657 128.693 1.13634C128.768 1.13616 128.844 1.13643 128.919 1.13711C128.947 1.13438 128.977 1.1314 129.009 1.12841C129.166 1.11346 129.359 1.09689 129.597 1.09781C129.978 1.09981 130.307 1.13741 130.654 1.18631C130.926 1.2248 131.204 1.27003 131.526 1.31754C131.746 1.35003 131.996 1.38633 132.242 1.42782C132.609 1.4893 132.97 1.56383 133.214 1.63495C133.307 1.66164 133.383 1.69462 133.458 1.7277C133.459 1.72787 133.459 1.72803 133.459 1.7282C133.465 1.73045 133.47 1.73269 133.475 1.73493C134.075 1.89095 134.669 2.07764 135.252 2.2949C135.304 2.31169 135.355 2.32895 135.407 2.34631C135.657 2.43084 135.898 2.52003 136.059 2.57019C136.234 2.62396 136.655 2.8035 137.089 3.01661C137.372 3.15514 137.662 3.30799 137.898 3.4334C138.036 3.50666 138.156 3.59439 138.279 3.68602C138.393 3.77153 138.509 3.8604 138.644 3.94556C138.711 3.98824 138.785 4.03175 138.865 4.07908C138.934 4.1207 139.008 4.16518 139.083 4.21417C139.153 4.25972 139.301 4.37231 139.486 4.52119C139.601 4.61322 139.731 4.71929 139.865 4.83152C140.234 5.1117 140.592 5.40675 140.938 5.7153C141.016 5.77273 141.087 5.81982 141.148 5.85236C141.192 5.87571 141.232 5.89253 141.273 5.91002C141.329 5.93383 141.387 5.95876 141.458 6.00306C141.514 6.03767 141.571 6.08673 141.603 6.12654C141.617 6.14508 141.626 6.16146 141.635 6.17632C141.644 6.19335 141.653 6.20854 141.667 6.22298C141.678 6.2334 141.691 6.2417 141.708 6.252C141.734 6.26845 141.768 6.28995 141.81 6.3326C141.965 6.49125 142.136 6.67788 142.299 6.86413C142.48 7.07112 142.652 7.27792 142.79 7.44156C142.945 7.62452 143.147 7.90106 143.34 8.18412C143.475 8.38129 143.605 8.58152 143.718 8.7527C143.828 8.92052 143.95 9.09004 144.065 9.25683C144.203 9.45688 144.332 9.65273 144.422 9.83012C144.441 9.86601 144.453 9.91667 144.468 9.98019C144.478 10.0252 144.49 10.077 144.507 10.1343C144.631 10.3539 144.749 10.5758 144.863 10.8006C144.869 10.8076 144.875 10.8148 144.881 10.822C144.881 10.8222 144.881 10.8223 144.881 10.8224C145.017 10.985 145.204 11.2122 145.332 11.593C145.364 11.6898 145.373 11.7557 145.381 11.815C145.389 11.8733 145.395 11.9254 145.421 11.9945C145.45 12.0728 145.497 12.16 145.548 12.2559C145.618 12.3905 145.696 12.5425 145.74 12.7076C145.743 12.7188 145.747 12.731 145.75 12.7436C145.782 12.8631 145.828 13.0395 145.854 13.2215C146.019 13.7331 146.158 14.2505 146.273 14.7731C146.464 15.6464 146.587 16.5286 146.645 17.4169C146.674 17.8478 146.648 18.2664 146.583 18.5705C146.517 18.876 146.422 19.0461 146.325 19.0459C146.228 19.0458 146.136 18.8769 146.056 18.5843C145.976 18.2924 145.911 17.8971 145.863 17.487C145.786 16.8166 145.669 16.1511 145.516 15.4973C145.507 15.4631 145.497 15.4288 145.488 15.3947C145.419 15.1408 145.336 14.9121 145.248 14.6844C145.228 14.632 145.207 14.5797 145.187 14.5274Z" fill="black"/>
<path d="M29.2059 23.8623C28.8672 24.5568 27.9709 25.7508 27.4043 26.3387C27.3941 26.3497 27.384 26.3606 27.3738 26.3716C27.2419 26.5134 27.1162 26.6466 26.9657 26.7997C26.6023 27.1572 26.123 27.6678 24.9451 28.4985C24.6063 28.7451 24.2575 28.9774 23.899 29.195C21.5032 30.6547 18.6939 31.4182 15.8962 31.39C14.1778 31.377 12.4679 31.0752 10.8549 30.4957C10.8011 30.4773 10.7466 30.4583 10.6916 30.4388C9.6232 30.0713 8.36902 29.4284 7.64272 28.9325C6.714 28.3094 6.14576 27.8031 5.69312 27.3786C3.05982 24.9809 1.31109 21.6554 0.83529 18.1446C0.735847 17.4263 0.687259 16.7056 0.688241 15.9798C0.688847 15.5918 0.703383 15.2102 0.732365 14.8239C0.808783 13.8059 0.986313 12.7948 1.26315 11.8114C1.41583 11.2371 1.59372 10.6976 1.78262 10.2071C2.0481 9.5171 2.33552 8.92287 2.60049 8.44715C3.23151 7.29516 4.16762 6.12259 4.95125 5.34674C5.0784 5.21888 5.20069 5.10045 5.31523 4.9925C5.94164 4.38029 6.62087 3.82093 7.34339 3.3234C7.39405 3.29376 7.44525 3.26436 7.49752 3.23478C8.15199 2.87151 8.93394 2.38356 10.2723 1.84135C10.8566 1.60881 11.5471 1.37301 12.3825 1.17869C12.9223 1.05524 13.2047 1.03083 13.4361 1.0087C13.5041 1.00258 13.5686 0.997163 13.6324 0.991341C13.8521 0.971365 14.0809 0.927546 14.3547 0.883533C14.7061 0.827424 15.1365 0.768716 15.7042 0.783919C15.7695 0.785722 15.8335 0.787795 15.8962 0.790098C17.5698 0.868539 18.3178 0.997843 18.8969 1.06479C19.0724 1.08879 19.2324 1.11369 19.3937 1.14589C19.9173 1.24736 20.6455 1.48231 21.173 1.70668C21.5953 1.87808 22.4382 2.21733 23.0577 2.527C23.2925 2.6419 23.6019 2.81429 23.9555 3.03463C24.3215 3.26252 24.7345 3.54237 25.1645 3.8589C26.2468 4.66664 26.7464 5.19237 27.1498 5.60491C27.2637 5.7242 27.3678 5.83699 27.4704 5.95114C27.7952 6.31155 28.1757 6.77948 28.5277 7.27821C28.9508 7.87343 29.3299 8.51377 29.5953 9.01208C30.2501 10.3231 30.7109 11.7285 30.9619 13.1666C31.0926 13.9075 31.1184 14.6279 31.0726 15.1587C31.0265 15.6861 30.9248 15.9802 30.8272 15.9798C30.7273 15.9798 30.6379 15.6879 30.5389 15.1872C30.4396 14.6818 30.3289 14.0093 30.19 13.3098C29.9135 11.9037 29.4259 10.541 28.7526 9.27973C27.9333 7.74285 26.8398 6.35667 25.5442 5.1972C24.6383 4.38586 23.6313 3.68653 22.5537 3.12277C22.4427 3.06471 22.3309 3.00801 22.2183 2.95273C21.2892 2.52419 20.3149 2.21672 19.6214 2.04301C19.0489 1.89807 18.6279 1.80502 18.2649 1.7331C18.0137 1.68405 17.7937 1.64712 17.5662 1.62192C17.4439 1.60844 17.2779 1.59237 17.0772 1.57794C16.7567 1.55483 16.352 1.5368 15.8962 1.53889C15.1828 1.5405 14.3596 1.59907 13.5885 1.70969C13.0273 1.78814 12.3804 1.90953 11.77 2.07063C10.8971 2.29666 10.1096 2.60716 9.72874 2.79653C9.0575 3.12452 8.30693 3.53917 7.67687 3.96047C7.07432 4.35986 6.58062 4.75878 6.32105 5.00802C6.01157 5.30627 5.73848 5.54962 5.35295 5.93469C5.087 6.20287 4.76652 6.54018 4.37527 7.03535C3.9255 7.60866 3.63457 8.03537 3.39546 8.40408C3.06348 8.9243 2.82991 9.33139 2.56292 9.97106C2.26745 10.6825 2.01848 11.4473 1.843 12.0537C1.76178 12.3311 1.68339 12.6493 1.61415 12.9864C1.52252 13.4299 1.44916 13.9021 1.39188 14.3347C1.34451 14.6915 1.30461 14.9852 1.27448 15.2491C1.26518 15.3306 1.25693 15.4091 1.24996 15.4853C1.24466 15.6495 1.24209 15.8143 1.24232 15.9798C1.2425 16.1034 1.24423 16.2266 1.24751 16.3495C1.25175 16.3959 1.2566 16.4446 1.26188 16.4954C1.28846 16.7486 1.3271 17.0648 1.37612 17.4479C1.45521 18.0591 1.53207 18.5908 1.64326 19.1496C1.7306 19.5836 1.83971 20.0332 2.00734 20.535C2.12155 20.8771 2.27111 21.2605 2.43585 21.6316C2.67986 22.1851 2.96058 22.7104 3.1568 23.0749C3.23012 23.2117 3.28663 23.333 3.344 23.4526C3.34423 23.4532 3.34447 23.4537 3.3447 23.4543C3.3486 23.4624 3.35254 23.4705 3.35646 23.4786C3.88355 24.3404 4.5009 25.1462 5.1936 25.879C5.25522 25.941 5.31798 26.0032 5.38068 26.0642C5.68669 26.3628 5.9991 26.6363 6.21386 26.8009C6.4452 26.9804 7.01098 27.4504 7.65462 27.8776C8.07464 28.1592 8.52539 28.4242 8.90412 28.6195C9.12546 28.734 9.32833 28.8537 9.54149 28.9725C9.74016 29.0831 9.94639 29.1921 10.1824 29.2903C10.3007 29.3395 10.4295 29.3874 10.5684 29.4366C10.6905 29.4798 10.8206 29.5239 10.9563 29.5699C11.0819 29.6124 11.3591 29.719 11.7208 29.8368C11.9436 29.9094 12.2017 29.987 12.472 30.0575C13.196 30.225 13.9296 30.336 14.669 30.3912C14.8238 30.3932 14.9587 30.3879 15.0659 30.3758C15.143 30.3672 15.2079 30.3547 15.2745 30.3417C15.3652 30.3238 15.4587 30.3048 15.5872 30.2898C15.6876 30.2781 15.8059 30.2736 15.8855 30.2794C15.8892 30.2796 15.8927 30.2799 15.8962 30.2802C15.9282 30.2831 15.9537 30.2875 15.977 30.2915C16.0066 30.2966 16.0331 30.3011 16.0653 30.3006C16.0886 30.3002 16.1127 30.2961 16.1423 30.2911C16.1896 30.2831 16.251 30.2726 16.3444 30.2695C16.6901 30.2579 17.0881 30.2347 17.4727 30.1952C17.9022 30.1518 18.3189 30.0877 18.6474 30.0205C19.0159 29.9464 19.5414 29.8389 20.0595 29.6952C20.4216 29.5958 20.7787 29.4807 21.0819 29.3671C21.3781 29.2566 21.6786 29.12 21.9638 28.9782C22.3066 28.8082 22.6279 28.6304 22.9065 28.4877C22.9628 28.4589 23.0385 28.4332 23.1332 28.3996C23.2003 28.3758 23.2774 28.3479 23.3632 28.3122C23.7056 28.1044 24.0391 27.8833 24.3636 27.6488C24.3738 27.6389 24.3843 27.6287 24.3948 27.6184C24.395 27.6182 24.3951 27.618 24.3953 27.6178C24.6323 27.3843 24.9469 27.0643 25.4415 26.6761C25.5671 26.577 25.6533 26.5218 25.7309 26.4717C25.8071 26.4224 25.875 26.3778 25.961 26.2983C26.0586 26.2079 26.1627 26.0898 26.2734 25.9592C26.429 25.7757 26.597 25.5673 26.7844 25.3744C26.7972 25.3612 26.811 25.347 26.8252 25.3322C26.9607 25.1916 27.1571 24.9799 27.3589 24.7715C27.8868 24.0991 28.3568 23.3801 28.7606 22.6246C29.4343 21.3654 29.9225 20.0033 30.1996 18.5975C30.336 17.9121 30.4453 17.2528 30.5433 16.7572C30.6412 16.2663 30.7292 15.9799 30.8272 15.9798C30.923 15.9795 31.0228 16.2681 31.0697 16.7847C31.1164 17.305 31.0945 18.0109 30.9721 18.7379C30.7747 19.9205 30.4364 21.0822 29.9641 22.1895C29.9404 22.2481 29.9162 22.3067 29.8917 22.3648C29.7091 22.7966 29.5336 23.197 29.3415 23.5915C29.2973 23.682 29.2522 23.7723 29.2059 23.8623Z" fill="black"/>
<path d="M0.724806 41.1505C0.678346 40.8169 0.69732 40.1736 0.70774 39.8197C0.707911 39.8133 0.708082 39.8068 0.708253 39.8003C0.710721 39.7163 0.711363 39.6369 0.712062 39.5438C0.713729 39.3219 0.715993 39.022 0.745607 38.3962C0.744516 38.2141 0.743923 38.032 0.743923 37.8499C0.743923 35.8835 0.782552 33.9171 0.828812 31.9506C0.828573 31.9258 0.828328 31.9005 0.82808 31.875C0.823285 31.3818 0.817353 30.7702 0.834305 30.386C0.855859 29.8974 0.875859 29.5656 0.89312 29.2931C0.930342 27.7312 0.963603 26.1693 0.97735 24.6074C0.981658 24.1179 0.984015 23.6283 0.984015 23.1388C0.984015 22.688 0.98254 22.2371 0.979767 21.7863C0.969656 21.5238 0.957643 21.2742 0.946514 21.0428C0.930876 20.7175 0.916988 20.428 0.912456 20.1888C0.901538 19.6126 0.91877 18.9589 0.931573 18.4735C0.933665 18.3942 0.935646 18.3193 0.937359 18.25C0.931018 17.8645 0.924229 17.4789 0.91729 17.0934C0.921151 17.0677 0.925176 17.0417 0.929302 17.0154C0.980798 16.6864 0.980138 16.2819 0.979181 15.6452C0.978764 15.368 0.978313 15.0466 0.982037 14.6683C0.984438 14.4246 1.00486 14.2994 1.02152 14.197C1.02642 14.1669 1.031 14.1387 1.0347 14.1101C1.04738 14.0122 1.03368 13.909 1.01749 13.787C0.996486 13.6288 0.971261 13.439 0.994049 13.1883C1.06666 12.3894 1.0174 12.0373 0.980133 11.771C0.969202 11.6929 0.959325 11.6221 0.953839 11.5496C0.936055 11.3145 0.953675 10.9797 0.977863 10.7265C0.997042 10.5259 0.978028 10.1243 0.953839 9.81982C0.944692 9.70469 0.944462 9.54898 0.944244 9.36558C0.944018 9.17579 0.943812 8.95621 0.93355 8.7213C0.907618 8.12766 0.895049 7.81218 0.88499 7.55857C0.882122 7.48625 0.87951 7.41891 0.876787 7.35164C0.86818 7.13903 0.861089 6.8752 0.853934 6.60808C0.845373 6.28841 0.83668 5.96397 0.825077 5.71712C0.837356 5.07728 0.852548 4.4374 0.867704 3.79763C0.875573 3.46901 0.919891 3.1537 0.992951 2.92132C1.06607 2.68898 1.16141 2.5585 1.26022 2.55847C1.35902 2.55847 1.45436 2.689 1.52748 2.92132C1.60054 3.1537 1.64493 3.46901 1.6528 3.79763C1.66849 4.45965 1.68418 5.12181 1.69667 5.7839C1.7119 6.59041 1.72238 7.39698 1.72238 8.20349C1.72238 8.76768 1.72003 9.3319 1.71579 9.8961C1.71536 9.95419 1.71487 10.0123 1.7144 10.0704C1.73873 10.5443 1.76086 11.0174 1.76875 11.3507C1.77526 11.6259 1.76227 11.8265 1.75117 11.9984C1.74353 12.1166 1.73676 12.2212 1.73784 12.3271C1.73842 12.384 1.73992 12.4616 1.74172 12.5553C1.74908 12.9377 1.76158 13.5872 1.73784 14.1797C1.7273 14.4426 1.70654 14.748 1.68671 15.0396C1.65837 15.4565 1.63194 15.8453 1.64006 16.0415C1.65432 16.3862 1.64225 16.7815 1.63156 17.1307C1.62137 17.4639 1.61247 17.7553 1.62892 17.921C1.6486 18.119 1.64058 18.2878 1.6287 18.5389C1.62047 18.713 1.61041 18.9267 1.60637 19.2171C1.60169 19.5524 1.58791 19.7896 1.57619 19.9912C1.55969 20.275 1.54729 20.4885 1.57011 20.8067C1.59546 21.1602 1.61159 21.5296 1.60358 21.8206C1.59993 21.9531 1.60082 22.1047 1.60175 22.2625C1.60298 22.4713 1.60426 22.6909 1.59516 22.8915C1.58766 23.0567 1.56848 23.1933 1.55151 23.3142C1.54621 23.3519 1.54116 23.3881 1.53671 23.4231C1.53696 23.5547 1.53732 23.6863 1.53788 23.818C1.54097 23.8393 1.54439 23.8617 1.54792 23.8851C1.56562 24.0024 1.58734 24.1467 1.59816 24.3253C1.61529 24.608 1.60456 24.8561 1.59318 25.1178C1.58432 25.3215 1.57507 25.5335 1.57839 25.7766C1.58065 25.9423 1.58849 26.131 1.59626 26.318C1.60779 26.5958 1.61915 26.8702 1.61193 27.0608C1.60923 27.1322 1.59718 27.1936 1.5852 27.2543C1.58512 27.2546 1.58505 27.2549 1.58498 27.2551C1.58416 27.2593 1.58337 27.2634 1.58256 27.2675C1.59174 27.7317 1.60186 28.196 1.61252 28.6602C1.61561 28.7004 1.61867 28.7411 1.62167 28.7814C1.63636 28.9782 1.65063 29.1695 1.67089 29.2942C1.69286 29.4293 1.70562 29.7691 1.71909 30.1272C1.7279 30.3617 1.73701 30.6042 1.74919 30.8021C1.75631 30.9178 1.7439 31.0275 1.7311 31.1405C1.71916 31.2458 1.7069 31.354 1.70993 31.4723C1.71145 31.5315 1.71659 31.5955 1.72209 31.6637C1.72693 31.7238 1.73206 31.7874 1.7352 31.8539C1.73811 31.9158 1.73135 32.0534 1.72275 32.23C1.71743 32.3391 1.71143 32.463 1.70649 32.5932C1.71422 32.937 1.72164 33.281 1.72854 33.6249C1.73942 33.6966 1.75354 33.7589 1.77168 33.8082C1.78469 33.8435 1.80024 33.8736 1.81614 33.9046C1.83777 33.9466 1.86013 33.9902 1.87795 34.0502C1.89188 34.0971 1.89743 34.1524 1.89165 34.1895C1.88895 34.2068 1.88387 34.2201 1.87927 34.2322C1.87401 34.246 1.86932 34.2583 1.86946 34.2734C1.86956 34.2842 1.87329 34.2955 1.87781 34.3094C1.88502 34.3316 1.89432 34.3605 1.89465 34.4043C1.89588 34.5677 1.8929 34.7534 1.88996 34.9353C1.8867 35.1376 1.88352 35.3354 1.8863 35.4929C1.88942 35.6694 1.87557 35.9208 1.86177 36.1727C1.85214 36.3485 1.84255 36.5245 1.83862 36.6754C1.83477 36.8234 1.84243 36.9774 1.8499 37.1266C1.85887 37.3057 1.86754 37.4779 1.85539 37.6243C1.85293 37.6539 1.83792 37.6907 1.81914 37.7368C1.80583 37.7695 1.79061 37.8071 1.77658 37.8499C1.77658 38.0362 1.77597 38.2226 1.77483 38.4089C1.77686 38.4155 1.77893 38.4222 1.78105 38.429C1.7811 38.4291 1.78115 38.4292 1.7812 38.4293C1.82896 38.5824 1.8943 38.7918 1.85532 39.086C1.84541 39.1608 1.82711 39.2079 1.81064 39.2503C1.79447 39.292 1.77999 39.3292 1.77695 39.3837C1.7735 39.4456 1.78344 39.5187 1.79424 39.5983C1.8094 39.7102 1.82634 39.8352 1.81057 39.9605C1.80949 39.9691 1.80831 39.9783 1.80713 39.9879C1.7959 40.0788 1.7793 40.2133 1.74589 40.3472C1.73698 40.7444 1.72653 41.1417 1.71513 41.5389C1.69613 42.201 1.67446 42.8633 1.6528 43.5253C1.64214 43.8474 1.59665 44.1563 1.52382 44.3841C1.45089 44.6119 1.35716 44.7399 1.26022 44.7399C1.16328 44.7399 1.06961 44.6119 0.996686 44.3841C0.923854 44.1563 0.878365 43.8474 0.867704 43.5253C0.850523 43.0001 0.833316 42.4747 0.817459 41.9494C0.815446 41.9218 0.813498 41.8942 0.811673 41.8667C0.798088 41.6619 0.770804 41.4719 0.743483 41.2818C0.737208 41.2381 0.730918 41.1943 0.724806 41.1505Z" fill="black"/>
<path d="M40.2118 7.66647C40.2583 8.14121 40.2393 9.05663 40.2289 9.56018C40.2287 9.56942 40.2285 9.57866 40.2283 9.58789C40.2259 9.7074 40.2252 9.82045 40.2245 9.9529C40.2229 10.2687 40.2206 10.6954 40.191 11.586C40.1921 11.8451 40.1927 12.1043 40.1927 12.3634C40.1927 15.1618 40.154 17.9602 40.1078 20.7585C40.108 20.7939 40.1083 20.8298 40.1085 20.8662C40.1133 21.568 40.1192 22.4384 40.1023 22.9852C40.0807 23.6804 40.0607 24.1526 40.0435 24.5405C40.0063 26.7631 39.973 28.9859 39.9592 31.2085C39.9549 31.9052 39.9526 32.6019 39.9526 33.2985C39.9526 33.94 39.9541 34.5817 39.9568 35.2231C39.9669 35.5967 39.979 35.9519 39.9901 36.2813C40.0057 36.7441 40.0196 37.1562 40.0241 37.4965C40.0351 38.3165 40.0178 39.2467 40.005 39.9375C40.0029 40.0504 40.001 40.157 39.9992 40.2556C40.0056 40.8042 40.0124 41.3529 40.0193 41.9015C40.0154 41.9382 40.0114 41.9751 40.0073 42.0126C39.9558 42.4808 39.9565 43.0564 39.9574 43.9624C39.9577 44.1979 39.9579 44.4558 39.9573 44.7399L39.6417 44.4242C39.8335 44.4246 40.0374 44.4255 40.2544 44.427C40.6013 44.4294 40.7795 44.4498 40.9251 44.4664C40.9679 44.4714 41.0081 44.4759 41.0487 44.4796C41.1881 44.4923 41.335 44.4786 41.5085 44.4624C41.7337 44.4414 42.0038 44.4162 42.3606 44.439C43.4975 44.5116 43.9985 44.4623 44.3775 44.4251C44.4887 44.4141 44.5894 44.4043 44.6926 44.3988C45.0271 44.381 45.5036 44.3986 45.8638 44.4228C46.1494 44.442 46.7208 44.423 47.1542 44.3988C47.318 44.3896 47.5396 44.3894 47.8006 44.3892C48.0707 44.389 48.3832 44.3887 48.7175 44.3785C49.5623 44.3526 50.0112 44.34 50.3721 44.3299C50.475 44.3271 50.5709 44.3244 50.6666 44.3217C50.9691 44.3131 51.3446 44.306 51.7247 44.2989C52.1797 44.2903 52.6413 44.2816 52.9926 44.27C53.9032 44.2823 54.8138 44.2975 55.7242 44.3126C56.1919 44.3205 56.6406 44.3648 56.9713 44.4379C57.3019 44.511 57.4876 44.6063 57.4876 44.7052C57.4876 44.804 57.3019 44.8993 56.9713 44.9724C56.6406 45.0455 56.1919 45.0899 55.7242 45.0977C54.7821 45.1134 53.8398 45.1291 52.8976 45.1416C51.7499 45.1568 50.6021 45.1673 49.4543 45.1673C48.6515 45.1673 47.8485 45.165 47.0456 45.1607C46.963 45.1603 46.8803 45.1598 46.7976 45.1593C46.1231 45.1837 45.4499 45.2058 44.9756 45.2137C44.584 45.2202 44.2985 45.2072 44.0539 45.1961C43.8857 45.1885 43.7368 45.1817 43.5861 45.1828C43.5052 45.1833 43.3947 45.1849 43.2614 45.1867C42.7172 45.194 41.793 45.2065 40.9498 45.1828C40.5757 45.1722 40.141 45.1515 39.7261 45.1316C39.6978 45.1303 39.6697 45.129 39.6417 45.1276L39.2463 45.1197L39.2539 44.7399C39.2807 44.1789 39.3043 43.6644 39.2965 43.3984C39.2823 42.9079 39.2944 42.3454 39.305 41.8484C39.3152 41.3743 39.3241 40.9597 39.3077 40.7238C39.288 40.4421 39.296 40.2018 39.3079 39.8445C39.3161 39.5968 39.3262 39.2927 39.3302 38.8794C39.3349 38.4022 39.3487 38.0646 39.3604 37.7777C39.3769 37.3739 39.3893 37.07 39.3665 36.6172C39.3411 36.1142 39.325 35.5884 39.333 35.1744C39.3367 34.9858 39.3358 34.77 39.3348 34.5456C39.3336 34.2484 39.3323 33.9358 39.3414 33.6505C39.3489 33.4153 39.3681 33.2209 39.3851 33.0489C39.3904 32.9953 39.3954 32.9438 39.3999 32.8939C39.3996 32.7066 39.3993 32.5193 39.3987 32.332C39.3956 32.3016 39.3922 32.2697 39.3887 32.2365C39.371 32.0695 39.3493 31.8642 39.3384 31.61C39.3213 31.2076 39.332 30.8546 39.3434 30.4822C39.3523 30.1923 39.3615 29.8906 39.3582 29.5447C39.356 29.3089 39.3481 29.0404 39.3403 28.7742C39.3288 28.3789 39.3175 27.9885 39.3247 27.7172C39.3274 27.6156 39.3394 27.5282 39.3514 27.4417C39.3515 27.4413 39.3515 27.441 39.3516 27.4406C39.3524 27.4347 39.3532 27.4288 39.354 27.4229C39.3449 26.7623 39.3347 26.1017 39.3241 25.4411C39.321 25.3838 39.3179 25.326 39.3149 25.2686C39.3002 24.9885 39.286 24.7163 39.2657 24.5389C39.2437 24.3465 39.231 23.863 39.2175 23.3534C39.2087 23.0197 39.1996 22.6747 39.1874 22.393C39.1803 22.2284 39.1927 22.0722 39.2055 21.9115C39.2174 21.7615 39.2297 21.6076 39.2267 21.4393C39.2251 21.355 39.22 21.264 39.2145 21.1668C39.2097 21.0813 39.2045 20.9908 39.2014 20.8962C39.1985 20.8082 39.2052 20.6122 39.2139 20.361C39.2192 20.2057 39.2252 20.0293 39.2301 19.8442C39.2224 19.3548 39.215 18.8653 39.2081 18.3759C39.1972 18.2738 39.1831 18.1852 39.1649 18.1151C39.1519 18.0648 39.1364 18.022 39.1205 17.978C39.0988 17.9181 39.0765 17.8561 39.0586 17.7707C39.0447 17.704 39.0392 17.6253 39.045 17.5724C39.0476 17.5478 39.0527 17.5289 39.0573 17.5117C39.0626 17.4921 39.0673 17.4745 39.0671 17.4531C39.067 17.4377 39.0633 17.4216 39.0588 17.4018C39.0516 17.3702 39.0423 17.3292 39.0419 17.2667C39.0407 17.0342 39.0437 16.7699 39.0466 16.5111C39.0499 16.2232 39.0531 15.9418 39.0503 15.7176C39.0472 15.4665 39.061 15.1086 39.0748 14.7502C39.0845 14.5001 39.094 14.2496 39.098 14.0348C39.1018 13.8243 39.0942 13.605 39.0867 13.3927C39.0777 13.1379 39.0691 12.8928 39.0812 12.6845C39.0837 12.6424 39.0987 12.59 39.1175 12.5244C39.1308 12.4779 39.146 12.4244 39.16 12.3634C39.16 12.0983 39.1606 11.8331 39.1618 11.5679C39.1597 11.5586 39.1577 11.549 39.1555 11.5393C39.1555 11.5392 39.1555 11.539 39.1554 11.5389C39.1076 11.3211 39.0423 11.0231 39.0813 10.6044C39.0912 10.4979 39.1095 10.4309 39.126 10.3706C39.1421 10.3113 39.1566 10.2583 39.1596 10.1807C39.1631 10.0926 39.1532 9.98865 39.1424 9.87527C39.1272 9.71607 39.1103 9.53826 39.126 9.35982C39.1271 9.34764 39.1283 9.33454 39.1295 9.32089C39.1407 9.19156 39.1573 9.00009 39.1907 8.80957C39.1996 8.2443 39.2101 7.67897 39.2215 7.1137C39.2405 6.17145 39.2621 5.22901 39.2838 4.28686C39.2945 3.82849 39.34 3.38889 39.4128 3.06476C39.4857 2.74061 39.5794 2.55847 39.6764 2.55847C39.7733 2.5585 39.867 2.74064 39.9399 3.06476C40.0127 3.38889 40.0582 3.82847 40.0689 4.28686C40.0861 5.03431 40.1033 5.78201 40.1191 6.52955C40.1212 6.56873 40.1231 6.60808 40.1249 6.64725C40.1385 6.93866 40.1658 7.20904 40.1931 7.47962C40.1994 7.54176 40.2057 7.60403 40.2118 7.66647Z" fill="black"/>
</svg>
