<svg width="33" height="4" viewBox="0 0 33 4" fill="none" xmlns="http://www.w3.org/2000/svg">
<path d="M2.84496 3.75722C3.10141 3.86075 3.59108 3.80713 3.86044 3.77767C3.86538 3.77718 3.87032 3.77669 3.87527 3.77619C3.93919 3.76921 3.99974 3.76656 4.07068 3.76358C4.23984 3.75646 4.46838 3.74682 4.94428 3.66862C5.08318 3.66852 5.22207 3.66726 5.36092 3.66461C6.8604 3.636 8.35815 3.51727 9.85556 3.38075C9.87451 3.38094 9.89379 3.38115 9.91326 3.38135C10.2896 3.38536 10.7562 3.39031 11.0484 3.34517C11.42 3.28778 11.6722 3.23629 11.8792 3.19206C13.0685 3.0825 14.2581 2.98218 15.4485 2.92739C15.8216 2.91022 16.1948 2.8976 16.5681 2.89048C16.9118 2.88392 17.2557 2.8808 17.5995 2.88071C17.8002 2.90048 17.991 2.92488 18.168 2.94747C18.4167 2.97922 18.6381 3.00741 18.8207 3.0145C19.2606 3.03159 19.7582 2.98188 20.1278 2.94495C20.1882 2.93892 20.2452 2.93321 20.298 2.9282C20.5922 2.93739 20.8866 2.94761 21.1809 2.95819C21.2003 2.94881 21.2199 2.93905 21.2398 2.92904C21.4884 2.80411 21.7969 2.79977 22.2824 2.79274C22.4938 2.78968 22.7389 2.78606 23.0272 2.77186C23.2129 2.76272 23.3075 2.71326 23.3848 2.67291C23.4075 2.66104 23.4289 2.64994 23.4505 2.64089C23.5246 2.60988 23.6039 2.64035 23.6976 2.67634C23.8192 2.72303 23.9651 2.77912 24.1552 2.72231C24.7612 2.54129 25.0319 2.65109 25.2366 2.73416C25.2966 2.75852 25.3511 2.78053 25.4066 2.79228C25.5866 2.83035 25.8412 2.78437 26.0331 2.72426C26.1853 2.6766 26.4923 2.71511 26.7256 2.76711C26.8138 2.78678 26.9326 2.78505 27.0724 2.78289C27.2172 2.78066 27.3846 2.77794 27.5642 2.79846C28.018 2.85033 28.2591 2.87506 28.453 2.89484C28.5082 2.90047 28.5597 2.90559 28.6111 2.91096C28.7736 2.92795 28.9751 2.94065 29.1792 2.95346C29.4233 2.96878 29.6711 2.98434 29.8598 3.00782C30.3472 2.96986 30.8344 2.92511 31.3216 2.88045C31.5718 2.85731 31.8103 2.74933 31.9843 2.57551C32.1582 2.40155 32.2534 2.17723 32.2491 1.94673C32.2447 1.71621 32.1409 1.4957 31.9605 1.3285C31.78 1.16144 31.5376 1.06246 31.2867 1.04889C30.7812 1.02193 30.2755 0.994951 29.7701 0.975431C29.1544 0.951654 28.5389 0.938922 27.9239 0.950655C27.4937 0.958864 27.0636 0.972569 26.6335 0.990657C26.5893 0.99252 26.545 0.994487 26.5007 0.996439C26.1382 0.946576 25.7765 0.901833 25.522 0.88828C25.3118 0.877094 25.1594 0.910302 25.0289 0.938711C24.9391 0.95826 24.8596 0.975562 24.7788 0.974592C24.7354 0.97407 24.6762 0.971699 24.6047 0.968855C24.3127 0.957242 23.8169 0.937539 23.3662 1.00154C23.1662 1.02994 22.9342 1.08283 22.7127 1.13332C22.3961 1.20552 22.1008 1.27282 21.9508 1.25674C21.6873 1.22848 21.3864 1.26239 21.1206 1.29241C20.867 1.32104 20.6452 1.34604 20.5181 1.31005C20.3663 1.26703 20.2379 1.2882 20.047 1.31956C19.9146 1.3413 19.7521 1.36787 19.5308 1.38154C19.2753 1.39732 19.095 1.43292 18.9418 1.4632C18.7262 1.50581 18.5639 1.53784 18.3203 1.48925C18.0496 1.43525 17.7671 1.40299 17.5456 1.42591C17.4447 1.43635 17.3291 1.43648 17.2088 1.43661C17.0495 1.43677 16.882 1.437 16.7294 1.46114C16.6038 1.48103 16.5005 1.52776 16.4091 1.56912C16.3805 1.58203 16.3532 1.59435 16.3266 1.60522C16.2263 1.60657 16.1259 1.60765 16.0255 1.60824C16.0091 1.60134 15.9919 1.59369 15.9739 1.5858C15.8836 1.5462 15.7726 1.49764 15.6359 1.47499C15.4196 1.43915 15.2309 1.46778 15.0319 1.49814C14.8769 1.52178 14.7156 1.54644 14.5302 1.54224C14.4037 1.53937 14.2595 1.52382 14.1165 1.50842C13.9042 1.48555 13.6945 1.46305 13.5494 1.48266C13.4951 1.49001 13.4488 1.519 13.403 1.54785C13.4028 1.54802 13.4026 1.54819 13.4024 1.54837C13.3993 1.55033 13.3962 1.55224 13.3931 1.55419C13.0387 1.53953 12.6842 1.52268 12.3298 1.50456C12.2989 1.49793 12.2678 1.49139 12.237 1.48497C12.0862 1.45356 11.9397 1.42305 11.8437 1.3776C11.7397 1.32833 11.48 1.30349 11.2064 1.27729C11.0272 1.26013 10.8419 1.24242 10.6904 1.21688C10.6019 1.20195 10.5187 1.23251 10.4332 1.26401C10.3534 1.2934 10.2714 1.32356 10.1811 1.31821C10.1359 1.31553 10.0869 1.30447 10.0346 1.29264C9.98852 1.28222 9.93984 1.27118 9.88896 1.26482C9.84169 1.25893 9.737 1.2767 9.60277 1.29934C9.51981 1.31332 9.42555 1.32913 9.32656 1.34255C9.06398 1.32951 8.80137 1.31721 8.53882 1.30613C8.48363 1.28179 8.43553 1.24974 8.39715 1.20815C8.36961 1.17832 8.34596 1.14248 8.32167 1.10584C8.28863 1.05598 8.25443 1.00446 8.20788 0.963741C8.1715 0.931925 8.12907 0.919781 8.10101 0.933815C8.08794 0.94036 8.07804 0.952413 8.06905 0.963312C8.05875 0.975798 8.04956 0.986903 8.03807 0.986808C8.02979 0.986719 8.02101 0.978183 8.01022 0.967854C7.99298 0.951359 7.97056 0.930068 7.93707 0.929934C7.81244 0.92944 7.67096 0.93909 7.53237 0.948595C7.37826 0.959164 7.22763 0.969441 7.10738 0.96525C6.97268 0.960551 6.78153 0.996512 6.59007 1.03238C6.4565 1.05741 6.32273 1.08232 6.20778 1.09369C6.09514 1.10483 5.97732 1.0892 5.86323 1.07394C5.72628 1.05562 5.59455 1.03791 5.48348 1.06836C5.46102 1.07455 5.43365 1.1101 5.39932 1.15458C5.37499 1.18611 5.34699 1.22216 5.31496 1.2555C5.17288 1.25821 5.03081 1.26236 4.88878 1.26774C4.88368 1.26308 4.87843 1.25834 4.87317 1.2535C4.87308 1.25339 4.873 1.25328 4.87291 1.25317C4.75409 1.14396 4.59149 0.994592 4.36888 1.0898C4.31229 1.114 4.2772 1.15738 4.24559 1.19642C4.21454 1.23476 4.18679 1.26907 4.14537 1.27696C4.09832 1.2859 4.04215 1.2638 3.98092 1.23976C3.89494 1.20601 3.79891 1.1683 3.704 1.20692C3.69752 1.20956 3.69055 1.21245 3.68329 1.21535C3.61449 1.24286 3.51263 1.28354 3.41203 1.36343C3.10953 1.39001 2.80707 1.42016 2.50468 1.45253C2.00064 1.5065 1.49661 1.56668 0.992729 1.62684C0.747591 1.65639 0.51406 1.76702 0.343621 1.94024C0.173177 2.11369 0.07975 2.33421 0.0840648 2.56037C0.0883938 2.78652 0.190159 3.00318 0.367083 3.16999C0.544006 3.33659 0.781575 3.43822 1.02767 3.4584C1.42895 3.49084 1.83036 3.52334 2.23163 3.55269C2.25271 3.55699 2.27388 3.56113 2.29495 3.56499C2.45171 3.5937 2.5978 3.65459 2.744 3.71556C2.77758 3.72956 2.81123 3.7436 2.84496 3.75722Z" fill="#0068FE"/>
</svg>
